<svg width="65" height="65" viewBox="0 0 65 65" fill="none" xmlns="http://www.w3.org/2000/svg">
<mask id="mask0_26_143" style="mask-type:luminance" maskUnits="userSpaceOnUse" x="0" y="0" width="65" height="65">
<path d="M0 0H65V65H0V0Z" fill="white"/>
</mask>
<g mask="url(#mask0_26_143)">
<path d="M59.6271 0H5.42084C2.42819 0 0 2.4254 0 5.42084V59.6271C0 62.6219 2.42819 65.048 5.42084 65.048H59.6271C62.6198 65.048 65.048 62.6219 65.048 59.6271V5.42084C65.048 2.4254 62.6198 0 59.6271 0ZM48.2794 45.6774V45.6823C47.7372 46.9892 46.8779 48.141 45.7775 49.0274C44.6388 49.9485 43.1971 50.7076 41.4217 51.2498C39.6497 51.7997 37.5406 52.0763 35.0985 52.0763H17.666V14.1319H36.1016C39.5114 14.1319 42.2433 14.8986 44.2871 16.4627C46.3468 18.0345 47.3708 20.3765 47.3708 23.5366C47.3708 25.4469 46.9051 27.0868 45.9673 28.4424C45.0351 29.7889 43.6907 30.8434 41.9562 31.5754V31.6999C44.2704 32.1879 46.0618 33.2855 47.2408 34.9928C48.4198 36.7008 49.0246 38.8579 49.0246 41.4627C49.0246 42.9211 48.7424 44.3086 48.2113 45.6037L48.2794 45.6774Z" fill="url(#paint0_linear_26_143)"/>
</g>
<path d="M40.755 36.3317C39.6441 35.3154 38.0828 34.8198 36.0661 34.8198H24.3521V46.6583H36.0988C38.1044 46.6583 39.6768 46.1376 40.7877 45.0865C41.8992 44.0431 42.4679 42.5548 42.4679 40.6417C42.4491 38.771 41.8992 37.3237 40.7877 36.3317H40.755Z" fill="url(#paint1_linear_26_143)"/>
<path d="M39.1179 28.6808H39.129C40.2023 27.7702 40.7279 26.4661 40.7279 24.7671C40.7279 22.8589 40.2538 21.504 39.2917 20.7289C38.3379 19.9559 36.9608 19.5548 35.1499 19.5548H24.309V30.0253H35.1499C36.73 30.0253 38.0772 29.5644 39.1179 28.6808Z" fill="url(#paint2_linear_26_143)"/>
<defs>
<linearGradient id="paint0_linear_26_143" x1="32.524" y1="0" x2="32.524" y2="65.048" gradientUnits="userSpaceOnUse">
<stop stop-color="#BA01EE"/>
<stop offset="1" stop-color="#6A0188"/>
</linearGradient>
<linearGradient id="paint1_linear_26_143" x1="33.41" y1="34.8198" x2="33.41" y2="46.6583" gradientUnits="userSpaceOnUse">
<stop stop-color="#BA01EE"/>
<stop offset="1" stop-color="#6A0188"/>
</linearGradient>
<linearGradient id="paint2_linear_26_143" x1="32.5184" y1="19.5548" x2="32.5184" y2="30.0253" gradientUnits="userSpaceOnUse">
<stop stop-color="#BA01EE"/>
<stop offset="1" stop-color="#6A0188"/>
</linearGradient>
</defs>
</svg>
