<svg width="73" height="73" viewBox="0 0 73 73" fill="none" xmlns="http://www.w3.org/2000/svg">
<mask id="mask0_28_190" style="mask-type:luminance" maskUnits="userSpaceOnUse" x="1" y="1" width="71" height="71">
<path d="M1.70866 1.51404H71.9347V71.74H1.70866V1.51404Z" fill="white"/>
</mask>
<g mask="url(#mask0_28_190)">
<path d="M71.9347 36.627C71.9347 37.2019 71.9202 37.776 71.8921 38.3501C71.8639 38.9243 71.8221 39.4969 71.7651 40.0694C71.7088 40.6413 71.6389 41.2108 71.5545 41.7796C71.47 42.3477 71.372 42.9142 71.2602 43.4776C71.1476 44.0411 71.0222 44.6015 70.8822 45.1589C70.7423 45.7163 70.5895 46.2699 70.4222 46.8204C70.2557 47.3702 70.0754 47.9154 69.8823 48.4568C69.6884 48.9975 69.4816 49.5336 69.2618 50.0644C69.042 50.5951 68.8093 51.1206 68.563 51.6399C68.3174 52.1593 68.0596 52.6726 67.7881 53.1798C67.5174 53.6862 67.2345 54.1858 66.9387 54.6793C66.6437 55.1721 66.3365 55.6572 66.0171 56.1348C65.6977 56.6131 65.3669 57.0823 65.0248 57.5438C64.6826 58.0054 64.329 58.4586 63.964 58.9027C63.5997 59.3468 63.2241 59.7817 62.8386 60.2076C62.4523 60.6334 62.0569 61.0493 61.65 61.4562C61.244 61.8622 60.828 62.2584 60.4022 62.6447C59.9763 63.0302 59.5414 63.4059 59.0973 63.7701C58.6525 64.1344 58.2 64.4879 57.7384 64.8301C57.2769 65.1731 56.8069 65.5039 56.3294 65.8225C55.8511 66.1419 55.3659 66.4491 54.8732 66.7449C54.3804 67.0399 53.8801 67.3235 53.3736 67.5943C52.8672 67.865 52.3539 68.1235 51.8346 68.3691C51.3144 68.6147 50.7898 68.8474 50.259 69.0679C49.7275 69.2877 49.1921 69.4945 48.6507 69.6877C48.1093 69.8816 47.5641 70.0618 47.0143 70.2283C46.4645 70.3956 45.9109 70.5485 45.3535 70.6884C44.7962 70.8275 44.235 70.9538 43.6715 71.0656C43.108 71.1781 42.5423 71.2762 41.9735 71.3606C41.4055 71.445 40.8351 71.515 40.2633 71.5712C39.6915 71.6275 39.1181 71.6701 38.5448 71.6982C37.9706 71.7264 37.3965 71.74 36.8217 71.74C36.2468 71.74 35.6727 71.7264 35.0986 71.6982C34.5244 71.6701 33.9518 71.6275 33.38 71.5712C32.8082 71.515 32.2379 71.445 31.6691 71.3606C31.101 71.2762 30.5345 71.1781 29.9711 71.0656C29.4076 70.9538 28.8472 70.8275 28.2898 70.6884C27.7324 70.5485 27.1788 70.3956 26.629 70.2283C26.0785 70.0618 25.5333 69.8816 24.9926 69.6877C24.4512 69.4945 23.9151 69.2877 23.3843 69.0679C22.8536 68.8474 22.3281 68.6147 21.8088 68.3691C21.2894 68.1235 20.7761 67.865 20.2697 67.5943C19.7625 67.3235 19.2629 67.0399 18.7701 66.7449C18.2766 66.4491 17.7915 66.1419 17.3139 65.8225C16.8356 65.5039 16.3664 65.1731 15.9049 64.8301C15.4433 64.4879 14.9901 64.1344 14.546 63.7701C14.1019 63.4059 13.667 63.0302 13.2411 62.6447C12.8153 62.2584 12.3994 61.8622 11.9925 61.4562C11.5865 61.0493 11.1903 60.6334 10.8048 60.2076C10.4185 59.7817 10.0436 59.3468 9.67858 58.9027C9.31434 58.4586 8.96075 58.0054 8.61856 57.5438C8.27638 57.0823 7.94559 56.6131 7.62622 56.1348C7.30684 55.6572 6.99964 55.1721 6.70383 54.6793C6.40879 54.1858 6.12516 53.6862 5.85445 53.1798C5.58374 52.6726 5.3252 52.1593 5.07958 51.6399C4.83397 51.1206 4.60128 50.5951 4.38152 50.0644C4.16176 49.5336 3.95493 48.9975 3.76102 48.4568C3.56711 47.9154 3.38766 47.3702 3.22036 46.8204C3.05383 46.2699 2.90023 45.7163 2.76107 45.1589C2.62116 44.6015 2.49493 44.0411 2.38315 43.4776C2.27136 42.9142 2.17251 42.3477 2.08886 41.7796C2.00446 41.2108 1.93374 40.6413 1.87747 40.0694C1.8212 39.4969 1.77938 38.9243 1.75048 38.3501C1.72234 37.776 1.70866 37.2019 1.70866 36.627C1.70866 36.0529 1.72234 35.4788 1.75048 34.9047C1.77938 34.3306 1.8212 33.758 1.87747 33.1854C1.93374 32.6136 2.00446 32.044 2.08886 31.4752C2.17251 30.9072 2.27136 30.3407 2.38315 29.7772C2.49493 29.2137 2.62116 28.6533 2.76107 28.0959C2.90023 27.5385 3.05383 26.9842 3.22036 26.4344C3.38766 25.8846 3.56711 25.3394 3.76102 24.798C3.95493 24.2573 4.16176 23.7212 4.38152 23.1905C4.60128 22.6597 4.83397 22.1343 5.07958 21.6149C5.3252 21.0955 5.58374 20.5822 5.85445 20.0751C6.12516 19.5686 6.40879 19.0683 6.70383 18.5755C6.99964 18.0828 7.30684 17.5976 7.62622 17.1193C7.94559 16.6418 8.27638 16.1718 8.61856 15.7103C8.96075 15.2487 9.31434 14.7962 9.67858 14.3522C10.0436 13.9081 10.4185 13.4731 10.8048 13.0473C11.1903 12.6214 11.5865 12.2047 11.9925 11.7987C12.3994 11.3926 12.8153 10.9964 13.2411 10.6101C13.667 10.2246 14.1019 9.84897 14.546 9.48473C14.9901 9.12049 15.4433 8.76689 15.9049 8.42471C16.3664 8.08176 16.8356 7.75098 17.3139 7.43236C17.7915 7.11299 18.2766 6.80578 18.7701 6.50998C19.2629 6.21493 19.7625 5.9313 20.2697 5.66059C20.7761 5.38988 21.2894 5.13134 21.8088 4.88573C22.3281 4.64011 22.8536 4.40742 23.3843 4.1869C23.9151 3.96714 24.4512 3.76031 24.9926 3.56716C25.5333 3.37326 26.0785 3.19304 26.629 3.02651C27.1788 2.85922 27.7324 2.70637 28.2898 2.56645C28.8472 2.4273 29.4076 2.30107 29.9711 2.18929C30.5345 2.07675 31.101 1.97865 31.6691 1.89425C32.2379 1.80984 32.8082 1.73988 33.38 1.68361C33.9518 1.62734 34.5244 1.58476 35.0986 1.55662C35.6727 1.52849 36.2468 1.51404 36.8217 1.51404C37.3965 1.51404 37.9706 1.52849 38.5448 1.55662C39.1181 1.58476 39.6915 1.62734 40.2633 1.68361C40.8351 1.73988 41.4055 1.80984 41.9735 1.89425C42.5423 1.97865 43.108 2.07675 43.6715 2.18929C44.235 2.30107 44.7962 2.4273 45.3535 2.56645C45.9109 2.70637 46.4645 2.85922 47.0143 3.02651C47.5641 3.19304 48.1093 3.37326 48.6507 3.56716C49.1921 3.76031 49.7275 3.96714 50.259 4.1869C50.7898 4.40742 51.3144 4.64011 51.8346 4.88573C52.3539 5.13134 52.8672 5.38988 53.3736 5.66059C53.8801 5.9313 54.3804 6.21493 54.8732 6.50998C55.3659 6.80578 55.8511 7.11299 56.3294 7.43236C56.8069 7.75098 57.2769 8.08176 57.7384 8.42471C58.2 8.76689 58.6525 9.12049 59.0973 9.48473C59.5414 9.84897 59.9763 10.2246 60.4022 10.6101C60.828 10.9964 61.244 11.3926 61.65 11.7987C62.0569 12.2047 62.4523 12.6214 62.8386 13.0473C63.2241 13.4731 63.5997 13.9081 63.964 14.3522C64.329 14.7962 64.6826 15.2487 65.0248 15.7103C65.3669 16.1718 65.6977 16.6418 66.0171 17.1193C66.3365 17.5976 66.6437 18.0828 66.9387 18.5755C67.2345 19.0683 67.5174 19.5686 67.7881 20.0751C68.0596 20.5822 68.3174 21.0955 68.563 21.6149C68.8093 22.1343 69.042 22.6597 69.2618 23.1905C69.4816 23.7212 69.6884 24.2573 69.8823 24.798C70.0754 25.3394 70.2557 25.8846 70.4222 26.4344C70.5895 26.9842 70.7423 27.5385 70.8822 28.0959C71.0222 28.6533 71.1476 29.2137 71.2602 29.7772C71.372 30.3407 71.47 30.9072 71.5545 31.4752C71.6389 32.044 71.7088 32.6136 71.7651 33.1854C71.8221 33.758 71.8639 34.3306 71.8921 34.9047C71.9202 35.4788 71.9347 36.0529 71.9347 36.627Z" fill="#7D2AE7"/>
</g>
<path d="M64.8278 38.5523C64.7335 38.5523 64.6499 38.6155 64.608 38.7409C64.0385 40.3621 63.2697 41.3301 62.637 41.3301C62.2743 41.3301 62.1276 40.9248 62.1276 40.2884C62.1276 38.7029 63.0811 35.3343 63.5564 33.7975C63.6127 33.6385 63.6438 33.4728 63.6507 33.3047C63.6507 32.8576 63.4058 32.6371 62.8021 32.6371C62.1968 32.6371 61.4462 32.8956 60.7679 34.091C60.5307 33.0355 59.8182 32.5747 58.822 32.5747C57.673 32.5747 56.5613 33.3153 55.6458 34.5138C54.731 35.7122 53.658 36.1099 52.8474 35.9145C53.4314 34.4925 53.6444 33.4271 53.6444 32.6371C53.6444 31.3968 53.033 30.6493 52.0444 30.6493C50.5381 30.6493 49.6719 32.085 49.6719 33.5944C49.6719 34.7617 50.1997 35.9639 51.3661 36.5471C50.3913 38.7516 48.9663 40.7469 48.4249 40.7469C47.726 40.7469 47.5192 37.3296 47.5618 34.8841C47.5823 33.4826 47.7017 33.4096 47.7017 32.983C47.7017 32.742 47.5405 32.5747 46.9078 32.5747C45.4303 32.5747 44.9695 33.8286 44.9026 35.2681C44.8775 35.8141 44.7916 36.3555 44.6479 36.8825C44.0258 39.0907 42.7544 40.7644 41.9225 40.7644C41.5347 40.7644 41.4336 40.3766 41.4336 39.8732C41.4336 38.287 42.321 36.2992 42.321 34.6081C42.321 33.361 41.7758 32.5747 40.7446 32.5747C39.5363 32.5747 37.9326 34.0172 36.4164 36.7144C36.9159 34.6499 37.1182 32.6477 35.6438 32.6477C35.3229 32.653 35.0081 32.7344 34.7252 32.8857C34.5229 32.9899 34.4142 33.1792 34.4279 33.3883C34.5678 35.5928 32.6531 41.2282 30.8364 41.2282C30.5049 41.2282 30.3475 40.8724 30.3475 40.2922C30.3475 38.7059 31.2942 35.3449 31.7694 33.8043C31.8272 33.637 31.8592 33.4613 31.8637 33.2834C31.8637 32.8644 31.6052 32.6477 31.0151 32.6477C30.365 32.6477 29.6623 32.8956 28.981 34.091C28.7437 33.0355 28.0312 32.5747 27.0389 32.5747C25.407 32.5747 23.5798 34.3001 22.7798 36.554C21.7069 39.5584 19.5442 42.4586 16.6341 42.4586C13.9932 42.4586 12.5986 40.261 12.5986 36.7912C12.5986 31.7747 16.2813 27.6799 19.0097 27.6799C20.3168 27.6799 20.9388 28.511 20.9388 29.7863C20.9388 31.3307 20.0788 32.047 20.0788 32.634C20.0788 32.812 20.2256 32.9899 20.5229 32.9899C21.7107 32.9899 23.1045 31.596 23.1045 29.6958C23.1045 27.7947 21.5639 26.4009 18.8317 26.4009C14.3209 26.4009 9.77896 30.9428 9.77896 36.76C9.77896 41.3895 12.064 44.1809 16.0121 44.1809C18.7062 44.1809 21.0605 42.0883 22.3327 39.639C22.4756 41.6685 23.395 42.724 24.7957 42.724C26.0427 42.724 27.0526 41.9833 27.8252 40.6769C28.1217 42.0426 28.908 42.7133 29.9315 42.7133C31.1056 42.7133 32.0835 41.9696 33.0165 40.5895C33.0028 41.6723 33.2507 42.6928 34.1906 42.6928C34.6347 42.6928 35.1655 42.5917 35.2598 42.2039C36.2453 38.1121 38.6946 34.7723 39.4421 34.7723C39.6618 34.7723 39.7211 34.9814 39.7211 35.2369C39.7211 36.3479 38.9387 38.6261 38.9387 40.0793C38.9387 41.6548 39.6063 42.6928 40.9865 42.6928C42.5164 42.6928 44.0707 40.8199 45.1087 38.0809C45.4341 40.6382 46.136 42.7027 47.2295 42.7027C48.5777 42.7027 50.9715 39.8694 52.4216 36.865C52.9874 36.938 53.8436 36.9205 54.661 36.341C54.315 37.2246 54.109 38.1927 54.109 39.1569C54.109 41.9446 55.4367 42.724 56.5826 42.724C57.8297 42.724 58.8395 41.9833 59.6113 40.6769C59.8668 41.8541 60.5162 42.7103 61.7154 42.7103C63.5876 42.7103 65.2156 40.7956 65.2156 39.223C65.2156 38.8078 65.0377 38.5523 64.8278 38.5523ZM25.9416 41.1834C25.1835 41.1834 24.8869 40.4184 24.8869 39.2823C24.8869 37.3121 26.2351 34.0142 27.664 34.0142C28.286 34.0142 28.524 34.751 28.524 35.6491C28.524 37.6512 27.2412 41.1834 25.9416 41.1834ZM51.8589 35.2924C51.408 34.7548 51.2437 34.021 51.2437 33.3709C51.2437 32.5679 51.5372 31.8896 51.8908 31.8896C52.2429 31.8896 52.3478 32.2356 52.3478 32.7177C52.3478 33.5214 52.0619 34.7023 51.8589 35.2924ZM57.7255 41.1834C56.9704 41.1834 56.6731 40.3066 56.6731 39.2823C56.6731 37.3783 58.0221 34.0142 59.4615 34.0142C60.0836 34.0142 60.3071 34.7404 60.3071 35.6491C60.3071 37.6512 59.0456 41.1834 57.7255 41.1834Z" fill="white"/>
</svg>
