<svg width="59" height="68" viewBox="0 0 59 68" fill="none" xmlns="http://www.w3.org/2000/svg">
<mask id="mask0_24_46" style="mask-type:luminance" maskUnits="userSpaceOnUse" x="45" y="0" width="14" height="14">
<path d="M45.8682 0H59V13.1713H45.8682V0Z" fill="white"/>
</mask>
<g mask="url(#mask0_24_46)">
<path d="M45.8837 0L58.9901 13.0958H45.8837V0Z" fill="#59CAFF"/>
</g>
<mask id="mask1_24_46" style="mask-type:luminance" maskUnits="userSpaceOnUse" x="8" y="0" width="51" height="68">
<path d="M8.70003 0H59V67.6605H8.70003V0Z" fill="white"/>
</mask>
<g mask="url(#mask1_24_46)">
<path d="M58.9901 13.0958V67.6605H8.74724V0H45.8837V13.0958H58.9901Z" fill="#0096DC"/>
</g>
<path d="M10.9321 8.73029V61.1129C10.9321 61.256 10.9392 61.3984 10.9533 61.5408C10.9674 61.6831 10.9878 61.8241 11.016 61.9643C11.0435 62.1046 11.0787 62.2427 11.1203 62.3802C11.1619 62.5169 11.2098 62.6508 11.2648 62.7833C11.319 62.9151 11.3804 63.0441 11.448 63.1702C11.515 63.2964 11.589 63.419 11.6679 63.5382C11.7476 63.6566 11.8328 63.7714 11.9238 63.8821C12.0147 63.9927 12.1105 64.0985 12.2113 64.1993C12.3128 64.3007 12.4185 64.3966 12.5292 64.4868C12.6398 64.5777 12.7547 64.663 12.8738 64.7419C12.9929 64.8216 13.1149 64.8949 13.2417 64.9626C13.3679 65.0302 13.4969 65.0908 13.6287 65.1458C13.7612 65.2001 13.8958 65.2487 14.0325 65.2903C14.1692 65.3312 14.3081 65.3664 14.4483 65.3939C14.5886 65.4221 14.7303 65.4432 14.8726 65.4566C15.015 65.4707 15.1581 65.4778 15.3012 65.4778H52.4369C52.58 65.4778 52.7231 65.4707 52.8654 65.4566C53.0078 65.4432 53.1488 65.4221 53.289 65.3939C53.43 65.3664 53.5681 65.3312 53.7056 65.2903C53.8423 65.2487 53.9769 65.2001 54.1087 65.1458C54.2412 65.0908 54.3702 65.0302 54.4963 64.9626C54.6225 64.8949 54.7451 64.8216 54.8643 64.7419C54.9834 64.663 55.0982 64.5777 55.2089 64.4868C55.3195 64.3966 55.4253 64.3007 55.5261 64.1993C55.6275 64.0985 55.7234 63.9927 55.8143 63.8821C55.9052 63.7714 55.9898 63.6566 56.0695 63.5382C56.1491 63.419 56.2224 63.2964 56.2901 63.1702C56.3577 63.0441 56.4183 62.9151 56.4733 62.7833C56.5283 62.6508 56.5762 62.5169 56.6178 62.3802C56.6594 62.2427 56.6939 62.1046 56.7221 61.9643C56.7496 61.8241 56.7707 61.6831 56.7848 61.5408C56.7989 61.3984 56.806 61.256 56.806 61.1129V58.7956C10.9321 55.9715 10.9321 8.73029 10.9321 8.73029Z" fill="#006BC0"/>
<mask id="mask2_24_46" style="mask-type:luminance" maskUnits="userSpaceOnUse" x="46" y="12" width="13" height="4">
<path d="M46.9508 12.9908H59V15.3363H46.9508V12.9908Z" fill="white"/>
</mask>
<g mask="url(#mask2_24_46)">
<path d="M46.9761 13.0958H58.9901V15.2779H46.9761V13.0958Z" fill="#005599"/>
</g>
<mask id="mask3_24_46" style="mask-type:luminance" maskUnits="userSpaceOnUse" x="0" y="3" width="40" height="18">
<path d="M0 3.24768H39.3728V20.7492H0V3.24768Z" fill="white"/>
</mask>
<g mask="url(#mask3_24_46)">
<path d="M0.00987244 3.27374H39.3298V20.7344H0.00987244V3.27374Z" fill="#006BC0"/>
</g>
<path d="M8.74722 20.7344H37.1456V24.0089H8.74722V20.7344Z" fill="#005599"/>
<path d="M26.2234 55.6564H25.131C24.952 55.6557 24.7736 55.6473 24.596 55.6296C24.4177 55.612 24.2415 55.5852 24.066 55.55C23.8905 55.5155 23.7179 55.4718 23.5466 55.4196C23.3753 55.3682 23.2076 55.3076 23.042 55.2392C22.877 55.1708 22.7156 55.094 22.5578 55.0101C22.4006 54.9256 22.2469 54.8339 22.0982 54.7346C21.9502 54.6352 21.8064 54.5288 21.6683 54.416C21.5302 54.3025 21.3977 54.1827 21.2715 54.0558C21.1446 53.9297 21.0248 53.7979 20.9114 53.6597C20.7979 53.5216 20.6915 53.3785 20.5921 53.2298C20.4927 53.0811 20.4011 52.9282 20.3165 52.7703C20.2326 52.6131 20.1558 52.4517 20.0874 52.2868C20.0191 52.1219 19.9585 51.9541 19.9063 51.7829C19.8542 51.6123 19.8112 51.4389 19.7759 51.2641C19.7407 51.0886 19.7146 50.9124 19.697 50.7341C19.6794 50.5565 19.6702 50.3782 19.6702 50.1999V46.9261C19.623 46.783 19.3904 46.6498 19.222 46.5519C18.7004 46.272 18.2275 45.926 17.8018 45.5151C17.7517 45.4644 17.7059 45.4087 17.6665 45.3495C17.6263 45.2896 17.5932 45.2268 17.5657 45.1606C17.5382 45.0943 17.517 45.0267 17.5037 44.9562C17.4896 44.8857 17.4825 44.8152 17.4825 44.7433C17.4825 44.6715 17.4896 44.601 17.5037 44.5305C17.517 44.46 17.5382 44.3917 17.5657 44.3254C17.5932 44.2599 17.6263 44.1964 17.6665 44.1372C17.7059 44.0773 17.7517 44.0223 17.8018 43.9716C18.2275 43.56 18.7004 43.2146 19.222 42.9348C19.3805 42.8517 19.5299 42.7537 19.6702 42.6416V39.2868C19.6702 39.1078 19.6794 38.9302 19.697 38.7519C19.7146 38.5743 19.7407 38.3981 19.7759 38.2226C19.8112 38.0478 19.8542 37.8744 19.9063 37.7038C19.9585 37.5326 20.0191 37.3648 20.0874 37.1999C20.1558 37.035 20.2326 36.8736 20.3165 36.7157C20.4011 36.5585 20.4927 36.4056 20.5921 36.2569C20.6915 36.1082 20.7979 35.9651 20.9114 35.827C21.0248 35.6888 21.1446 35.557 21.2715 35.4302C21.3977 35.304 21.5302 35.1842 21.6683 35.0707C21.8064 34.9572 21.9502 34.8508 22.0982 34.7521C22.2469 34.6528 22.4006 34.5604 22.5578 34.4766C22.7156 34.392 22.877 34.3159 23.042 34.2475C23.2076 34.1791 23.3753 34.1185 23.5466 34.0664C23.7179 34.0149 23.8905 33.9712 24.066 33.936C24.2415 33.9014 24.4177 33.8747 24.596 33.857C24.7736 33.8394 24.952 33.8303 25.131 33.8303H26.2234V36.013H25.131C25.0238 36.013 24.9167 36.018 24.8096 36.0285C24.7032 36.0391 24.5967 36.0546 24.4917 36.0757C24.3867 36.0969 24.2824 36.123 24.1802 36.154C24.0773 36.185 23.9765 36.2209 23.8771 36.2618C23.7778 36.3034 23.6812 36.3492 23.5868 36.3992C23.4916 36.45 23.4 36.505 23.3105 36.5649C23.2217 36.6241 23.135 36.6882 23.0525 36.7559C22.9694 36.8242 22.8897 36.8961 22.8143 36.9715C22.7382 37.0477 22.6663 37.1266 22.5979 37.2098C22.5303 37.2929 22.4661 37.3789 22.4062 37.4677C22.347 37.5572 22.2921 37.6489 22.2413 37.7433C22.1906 37.8377 22.1447 37.935 22.1039 38.0337C22.063 38.133 22.0263 38.2338 21.9953 38.3367C21.9643 38.4389 21.9382 38.5425 21.9171 38.6483C21.8967 38.7533 21.8804 38.859 21.8699 38.9661C21.8593 39.0725 21.8544 39.1797 21.8544 39.2868V42.5606C21.8551 42.7903 21.8234 43.0159 21.7592 43.2365C21.6944 43.4571 21.6006 43.6643 21.4766 43.8581C21.3526 44.0512 21.2031 44.2232 21.0298 44.374C20.8557 44.5249 20.6647 44.6475 20.4553 44.7433C20.6647 44.8385 20.8557 44.9618 21.0298 45.1127C21.2031 45.2628 21.3526 45.4355 21.4766 45.6286C21.6006 45.8224 21.6944 46.0296 21.7592 46.2502C21.8234 46.4708 21.8551 46.6963 21.8544 46.9261V50.1999C21.8544 50.307 21.8593 50.4141 21.8699 50.5206C21.8804 50.6277 21.8967 50.7334 21.9171 50.8384C21.9382 50.9434 21.9643 51.0478 21.9953 51.15C22.0263 51.2529 22.063 51.3536 22.1039 51.4523C22.1447 51.5517 22.1906 51.6482 22.2413 51.7434C22.2921 51.8378 22.347 51.9295 22.4062 52.019C22.4661 52.1078 22.5303 52.1938 22.5979 52.2769C22.6663 52.3594 22.7382 52.439 22.8143 52.5144C22.8897 52.5906 22.9694 52.6624 23.0525 52.7308C23.135 52.7985 23.2217 52.8626 23.3105 52.9218C23.4 52.9817 23.4916 53.0367 23.5868 53.0867C23.6812 53.1375 23.7778 53.1833 23.8771 53.2242C23.9765 53.2658 24.0773 53.3017 24.1802 53.3327C24.2824 53.3637 24.3867 53.3898 24.4917 53.4109C24.5967 53.4314 24.7032 53.4476 24.8096 53.4582C24.9167 53.4687 25.0238 53.4737 25.131 53.4737H26.2234V55.6564Z" fill="white"/>
<path d="M42.6071 55.6564H41.5147V53.4737H42.6071C42.7142 53.4737 42.8214 53.4687 42.9278 53.4582C43.0349 53.4476 43.1406 53.4314 43.2464 53.4109C43.3514 53.3898 43.4557 53.3637 43.5579 53.3327C43.6608 53.3017 43.7616 53.2658 43.8609 53.2242C43.9596 53.1833 44.0569 53.1375 44.1513 53.0867C44.2465 53.0367 44.3381 52.9817 44.4276 52.9218C44.5164 52.8626 44.6024 52.7985 44.6856 52.7308C44.7687 52.6624 44.8477 52.5906 44.9238 52.5144C44.9999 52.439 45.0718 52.3594 45.1395 52.2769C45.2078 52.1938 45.272 52.1078 45.3312 52.019C45.3911 51.9295 45.446 51.8378 45.4968 51.7434C45.5475 51.6482 45.5933 51.5517 45.6342 51.4523C45.6751 51.3536 45.711 51.2529 45.7428 51.15C45.7738 51.0478 45.7998 50.9434 45.8203 50.8384C45.8414 50.7334 45.8569 50.6277 45.8675 50.5206C45.8781 50.4141 45.8837 50.307 45.8837 50.1999V46.9261C45.883 46.6963 45.9147 46.4708 45.9789 46.2502C46.043 46.0296 46.1374 45.8224 46.2615 45.6286C46.3855 45.4355 46.5342 45.2628 46.7083 45.1127C46.8817 44.9618 47.0734 44.8385 47.2827 44.7433C47.0734 44.6475 46.8817 44.5249 46.7083 44.374C46.5342 44.2232 46.3855 44.0512 46.2615 43.8581C46.1374 43.6643 46.043 43.4571 45.9789 43.2365C45.9147 43.0159 45.883 42.7903 45.8837 42.5606V39.2868C45.8837 39.1797 45.8781 39.0725 45.8675 38.9661C45.8569 38.859 45.8414 38.7533 45.8203 38.6483C45.7998 38.5425 45.7738 38.4389 45.7428 38.3367C45.711 38.2338 45.6751 38.133 45.6342 38.0337C45.5933 37.935 45.5475 37.8377 45.4968 37.7433C45.446 37.6489 45.3911 37.5572 45.3312 37.4677C45.272 37.3789 45.2078 37.2929 45.1395 37.2098C45.0718 37.1266 44.9999 37.0477 44.9238 36.9715C44.8477 36.8961 44.7687 36.8242 44.6856 36.7559C44.6024 36.6882 44.5164 36.6241 44.4276 36.5649C44.3381 36.505 44.2465 36.45 44.1513 36.3992C44.0569 36.3492 43.9596 36.3034 43.8609 36.2618C43.7616 36.2209 43.6608 36.185 43.5579 36.154C43.4557 36.123 43.3514 36.0969 43.2464 36.0757C43.1406 36.0546 43.0349 36.0391 42.9278 36.0285C42.8214 36.018 42.7142 36.013 42.6071 36.013H41.5147V33.8303H42.6071C42.7854 33.8303 42.9637 33.8394 43.1421 33.857C43.3197 33.8747 43.4966 33.9014 43.6721 33.936C43.8469 33.9712 44.0202 34.0149 44.1915 34.0664C44.3628 34.1185 44.5305 34.1791 44.6954 34.2475C44.8611 34.3159 45.0225 34.392 45.1796 34.4766C45.3375 34.5604 45.4904 34.6528 45.6392 34.7521C45.7879 34.8508 45.9316 34.9572 46.0698 35.0707C46.2079 35.1842 46.3404 35.304 46.4666 35.4302C46.5927 35.557 46.7133 35.6888 46.8267 35.827C46.9402 35.9651 47.0466 36.1082 47.146 36.2569C47.2454 36.4056 47.337 36.5585 47.4216 36.7157C47.5055 36.8736 47.5823 37.035 47.6506 37.1999C47.719 37.3648 47.7796 37.5326 47.8311 37.7038C47.8832 37.8744 47.9269 38.0478 47.9622 38.2226C47.9974 38.3981 48.0235 38.5743 48.0411 38.7519C48.0587 38.9302 48.0679 39.1078 48.0679 39.2868V42.5606C48.1151 42.7037 48.3477 42.8369 48.5161 42.9348C49.0377 43.2146 49.5106 43.56 49.9356 43.9716C49.9863 44.0223 50.0315 44.0773 50.0716 44.1372C50.1111 44.1964 50.1449 44.2599 50.1724 44.3254C50.1999 44.3917 50.2203 44.46 50.2344 44.5305C50.2485 44.601 50.2556 44.6715 50.2556 44.7433C50.2556 44.8152 50.2485 44.8857 50.2344 44.9562C50.2203 45.0267 50.1999 45.0943 50.1724 45.1606C50.1449 45.2268 50.1111 45.2896 50.0716 45.3495C50.0315 45.4087 49.9863 45.4644 49.9356 45.5151C49.5106 45.926 49.0377 46.272 48.5161 46.5519C48.3561 46.6343 48.2053 46.7323 48.0651 46.845L48.0679 50.1999C48.0679 50.3782 48.0587 50.5565 48.0411 50.7341C48.0235 50.9124 47.9974 51.0886 47.9622 51.2641C47.9269 51.4389 47.8832 51.6123 47.8311 51.7829C47.7796 51.9541 47.719 52.1219 47.6506 52.2868C47.5823 52.4517 47.5055 52.6131 47.4216 52.7703C47.337 52.9282 47.2454 53.0811 47.146 53.2298C47.0466 53.3785 46.9402 53.5216 46.8267 53.6597C46.7133 53.7979 46.5927 53.9297 46.4666 54.0558C46.3404 54.1827 46.2079 54.3025 46.0698 54.416C45.9316 54.5288 45.7879 54.6352 45.6392 54.7346C45.4904 54.8339 45.3375 54.9256 45.1796 55.0101C45.0225 55.094 44.8611 55.1708 44.6954 55.2392C44.5305 55.3076 44.3628 55.3682 44.1915 55.4196C44.0202 55.4718 43.8469 55.5155 43.6721 55.55C43.4966 55.5852 43.3197 55.612 43.1421 55.6296C42.9637 55.6473 42.7854 55.6557 42.6071 55.6564Z" fill="white"/>
<path d="M45.8837 54.5647C45.6293 54.9037 45.3389 55.2082 45.0133 55.4795C44.6877 55.7509 44.3353 55.9806 43.9561 56.1702C43.5776 56.3598 43.1815 56.5029 42.7692 56.6009C42.3569 56.6981 41.9382 56.7475 41.5147 56.7475H40.4222V54.5647H41.5147V55.6564H42.6071C43.1977 55.6585 43.7742 55.5662 44.3353 55.3794C44.8956 55.1927 45.4122 54.9213 45.8837 54.5647Z" fill="#005599"/>
<path d="M46.1128 45.8781C45.9521 46.2094 45.8759 46.5582 45.8837 46.9261V50.1999C45.883 50.4804 45.8463 50.756 45.7752 51.0274C45.7033 51.2987 45.599 51.5567 45.4608 51.8012C45.3234 52.0458 45.1571 52.2692 44.9625 52.4708C44.7673 52.6731 44.5502 52.8471 44.3106 52.9937C44.6313 52.4715 44.7913 51.9041 44.7913 51.291V48.0172C44.7892 47.7945 44.818 47.5767 44.878 47.3624C44.9372 47.1482 45.026 46.9459 45.143 46.757C45.26 46.5674 45.4009 46.3983 45.5658 46.2488C45.7308 46.0994 45.9133 45.9761 46.1128 45.8781Z" fill="#005599"/>
<path d="M49.0948 46.1945C49.0469 46.3545 48.963 46.4926 48.8439 46.6096C48.6043 46.8472 48.3456 47.0621 48.0679 47.2531V46.8493C48.206 46.7344 48.3555 46.6364 48.5162 46.5547C48.7163 46.4468 48.9094 46.327 49.0948 46.1945Z" fill="#005599"/>
<path d="M47.2813 44.7434C46.8013 44.9915 46.4222 45.3481 46.1459 45.8126C45.9422 45.7153 45.7561 45.5913 45.5877 45.4404C45.4199 45.2903 45.2755 45.119 45.1556 44.928C45.0358 44.737 44.9449 44.5326 44.8829 44.3156C44.8209 44.0992 44.7906 43.8779 44.7913 43.6517V40.3779C44.7913 40.2707 44.7856 40.1643 44.7743 40.0572C44.7638 39.9508 44.7476 39.845 44.7264 39.74C44.7053 39.635 44.6792 39.5314 44.6482 39.4285C44.6165 39.3263 44.5805 39.2255 44.5389 39.1269C44.4981 39.0282 44.4523 38.9309 44.4015 38.8365C44.3508 38.742 44.2958 38.6504 44.2359 38.5616C44.1767 38.4728 44.1125 38.3868 44.0449 38.3036C43.9765 38.2212 43.9046 38.1415 43.8285 38.0661C43.7531 37.99 43.6735 37.9181 43.591 37.8505C43.5078 37.7821 43.4218 37.7187 43.333 37.6588C43.2435 37.5996 43.1519 37.5446 43.0575 37.4938C42.963 37.4431 42.8658 37.3973 42.7671 37.3557C42.6677 37.3148 42.5669 37.2789 42.4647 37.2472C42.3618 37.2161 42.2582 37.1901 42.1532 37.1689C42.0482 37.1478 41.9425 37.1316 41.8353 37.121C41.7289 37.1097 41.6218 37.1048 41.5147 37.1041H40.4222V34.9213H41.5147V36.0131H42.6071C42.7142 36.0131 42.8214 36.0187 42.9278 36.0293C43.0342 36.0405 43.1406 36.056 43.2456 36.0772C43.3507 36.0983 43.4543 36.1251 43.5572 36.1561C43.6594 36.1871 43.7601 36.2238 43.8595 36.2647C43.9582 36.3055 44.0548 36.3521 44.1492 36.4021C44.2443 36.4529 44.336 36.5078 44.4248 36.5677C44.5143 36.6269 44.6003 36.6911 44.6827 36.7587C44.7659 36.8271 44.8448 36.899 44.9209 36.9744C44.9971 37.0505 45.069 37.1295 45.1366 37.2126C45.205 37.2951 45.2684 37.3811 45.3283 37.4699C45.3882 37.5594 45.4432 37.651 45.4939 37.7454C45.5447 37.8399 45.5905 37.9364 45.6314 38.0351C45.673 38.1345 45.7089 38.2353 45.7399 38.3375C45.7716 38.4397 45.7977 38.544 45.8189 38.649C45.84 38.754 45.8562 38.8597 45.8668 38.9662C45.8774 39.0726 45.883 39.1797 45.8837 39.2868V42.5606C45.883 42.7904 45.9147 43.0159 45.9788 43.2358C46.0437 43.4564 46.1374 43.6636 46.2615 43.8575C46.3855 44.0506 46.5342 44.2232 46.7076 44.3734C46.881 44.5242 47.0727 44.6475 47.2813 44.7434Z" fill="#005599"/>
<path d="M25.1309 55.6565V56.7475H24.0385C23.8602 56.7475 23.6812 56.739 23.5036 56.7214C23.3252 56.7038 23.149 56.6777 22.9736 56.6425C22.7981 56.608 22.6247 56.5643 22.4534 56.5128C22.2821 56.4606 22.1144 56.4007 21.9488 56.3324C21.7839 56.264 21.6225 56.1872 21.4646 56.1033C21.3067 56.0187 21.1538 55.9271 21.0051 55.8277C20.8556 55.7284 20.7126 55.6226 20.5744 55.5092C20.4363 55.3957 20.3038 55.2759 20.1769 55.1497C20.0508 55.0229 19.9309 54.8911 19.8175 54.7529C19.704 54.6148 19.5976 54.471 19.4982 54.3223C19.3988 54.1743 19.3065 54.0206 19.2226 53.8635C19.138 53.7056 19.0619 53.5442 18.9936 53.3793C18.9252 53.2144 18.8646 53.0459 18.8124 52.8753C18.761 52.7041 18.7173 52.5307 18.6827 52.3559C18.6475 52.1804 18.6214 52.0035 18.6038 51.8259C18.5862 51.6483 18.5777 51.47 18.5777 51.291V48.0172C18.534 47.8755 18.2937 47.7444 18.1295 47.6465C17.61 47.3638 17.1364 47.0185 16.71 46.6097C16.6593 46.5582 16.6142 46.5033 16.574 46.4434C16.5345 46.3835 16.5007 46.32 16.4732 46.2538C16.4457 46.1868 16.4253 46.1185 16.4112 46.048C16.3971 45.9775 16.3907 45.9063 16.3907 45.8344C16.3907 45.7625 16.3971 45.6913 16.4112 45.6209C16.4253 45.5504 16.4457 45.482 16.4732 45.4158C16.5007 45.3488 16.5345 45.2861 16.574 45.2262C16.6142 45.1663 16.6593 45.1106 16.71 45.0598C16.9701 44.8089 17.2499 44.5834 17.5508 44.3832C17.5156 44.4798 17.4945 44.5799 17.4874 44.6821C17.4804 44.785 17.4881 44.8865 17.51 44.9873C17.5325 45.088 17.5685 45.1832 17.6178 45.2734C17.6678 45.3636 17.7292 45.4454 17.8018 45.518C18.2289 45.9275 18.7025 46.2728 19.2219 46.5547C19.3861 46.6534 19.6265 46.7838 19.6702 46.9261V50.1999C19.6702 50.3782 19.6786 50.5566 19.6962 50.7349C19.7139 50.9125 19.7399 51.0887 19.7745 51.2642C19.8097 51.4397 19.8534 51.6131 19.9049 51.7836C19.957 51.9549 20.0169 52.1226 20.0853 52.2875C20.1537 52.4532 20.2305 52.6146 20.3144 52.7717C20.3989 52.9296 20.4906 53.0826 20.5899 53.2313C20.6893 53.38 20.7957 53.5231 20.9092 53.6612C21.0227 53.7993 21.1432 53.9318 21.2694 54.058C21.3955 54.1842 21.528 54.3047 21.6662 54.4174C21.805 54.5309 21.9481 54.6373 22.0968 54.7367C22.2455 54.8361 22.3991 54.9277 22.5563 55.0123C22.7142 55.0962 22.8756 55.1723 23.0412 55.2406C23.2061 55.309 23.3746 55.3696 23.5459 55.4211C23.7171 55.4732 23.8905 55.5169 24.0653 55.5515C24.2408 55.586 24.4177 55.6128 24.596 55.6297C24.7736 55.6473 24.9519 55.6565 25.1309 55.6565Z" fill="#005599"/>
<path d="M20.7619 36.0131C20.4053 36.4839 20.1339 36.9998 19.9465 37.5601C19.7597 38.1204 19.6674 38.6962 19.6702 39.2868V42.6367C19.5313 42.7516 19.3826 42.8503 19.2219 42.9321C19.0366 43.0406 18.8181 43.1717 18.5777 43.3246V40.3779C18.5777 39.9543 18.6271 39.537 18.7243 39.1247C18.8223 38.7124 18.9661 38.317 19.155 37.9386C19.3446 37.5594 19.575 37.2077 19.8471 36.8821C20.1184 36.5572 20.4236 36.2675 20.7619 36.0131Z" fill="#005599"/>
<path d="M25.1309 36.0131V37.1041H24.0385C23.4253 37.1041 22.8573 37.2641 22.335 37.5841C22.4816 37.3451 22.6557 37.1281 22.858 36.9335C23.0602 36.739 23.2837 36.5727 23.5282 36.4352C23.7728 36.2978 24.0307 36.1928 24.3028 36.1216C24.5741 36.0497 24.8504 36.0138 25.1309 36.0131Z" fill="#005599"/>
<path d="M18.5777 17.4606C15.1214 17.4606 14.2087 15.3194 14.2087 14.1868H15.3011L16.3929 14.1551C16.4063 14.3425 16.5677 15.2778 18.5777 15.2778C18.6496 15.2778 18.7201 15.2708 18.7906 15.2574C18.8611 15.2433 18.9294 15.2221 18.9957 15.1953C19.0619 15.1679 19.1247 15.134 19.1846 15.0939C19.2438 15.0544 19.2995 15.0093 19.3502 14.9585C19.401 14.9078 19.4461 14.8528 19.4855 14.7929C19.5257 14.7337 19.5595 14.6703 19.587 14.6047C19.6138 14.5385 19.6349 14.4701 19.649 14.3996C19.6631 14.3292 19.6702 14.2587 19.6702 14.1868C19.6702 14.1149 19.6631 14.0444 19.649 13.9739C19.6349 13.9035 19.6138 13.8351 19.587 13.7688C19.5595 13.7033 19.5257 13.6399 19.4855 13.5807C19.4461 13.5208 19.401 13.4658 19.3502 13.415C19.2995 13.3643 19.2438 13.3192 19.1846 13.2797C19.1247 13.2395 19.0619 13.2057 18.9957 13.1789C18.9294 13.1514 18.8611 13.1303 18.7906 13.1162C18.7201 13.1028 18.6496 13.0958 18.5777 13.0958H17.4853C17.3782 13.0958 17.2711 13.0901 17.1639 13.0795C17.0575 13.069 16.9511 13.0535 16.8461 13.0323C16.741 13.0119 16.6367 12.9858 16.5338 12.9548C16.4316 12.9231 16.3309 12.8871 16.2315 12.8463C16.1321 12.8054 16.0355 12.7596 15.9404 12.7088C15.846 12.6581 15.7543 12.6031 15.6648 12.5439C15.576 12.484 15.4893 12.4206 15.4069 12.3522C15.3237 12.2845 15.2441 12.2126 15.1686 12.1365C15.0925 12.0611 15.0206 11.9815 14.9523 11.8983C14.8846 11.8158 14.8205 11.7299 14.7606 11.6404C14.7014 11.5515 14.6464 11.4592 14.5956 11.3648C14.5449 11.2703 14.4991 11.1738 14.4582 11.0744C14.4173 10.9757 14.3807 10.8742 14.3497 10.772C14.3187 10.6691 14.2926 10.5655 14.2714 10.4605C14.251 10.3548 14.2348 10.2491 14.2242 10.1427C14.2136 10.0355 14.2087 9.9291 14.2087 9.82127C14.2087 9.71414 14.2136 9.60772 14.2242 9.50059C14.2348 9.39416 14.251 9.28774 14.2714 9.18272C14.2926 9.07771 14.3187 8.9741 14.3497 8.8712C14.3807 8.7683 14.4173 8.66752 14.4582 8.56884C14.4991 8.46947 14.5449 8.37291 14.5956 8.27847C14.6464 8.18402 14.7014 8.0917 14.7606 8.00289C14.8205 7.91338 14.8846 7.8274 14.9523 7.74494C15.0206 7.66177 15.0925 7.58213 15.1686 7.50671C15.2441 7.4306 15.3237 7.35871 15.4069 7.29105C15.4893 7.22268 15.576 7.15925 15.6648 7.09934C15.7543 7.04014 15.846 6.98516 15.9404 6.93442C16.0355 6.88367 16.1321 6.83786 16.2315 6.79698C16.3309 6.75611 16.4316 6.72016 16.5338 6.68844C16.6367 6.65743 16.741 6.63136 16.8461 6.61092C16.9511 6.58977 17.0575 6.57427 17.1639 6.5637C17.2711 6.55312 17.3782 6.54749 17.4853 6.54749C20.9409 6.54749 21.8544 8.68866 21.8544 9.82127H19.6702C19.6575 9.66551 19.4961 8.73024 17.4853 8.73024C17.4134 8.73024 17.3429 8.73729 17.2725 8.75139C17.202 8.76548 17.1336 8.78592 17.0674 8.81341C17.0011 8.8409 16.9384 8.87473 16.8785 8.9142C16.8186 8.95437 16.7636 8.99948 16.7129 9.05022C16.6621 9.10026 16.617 9.15594 16.5775 9.21514C16.5374 9.27505 16.5035 9.33778 16.476 9.40403C16.4486 9.47028 16.4281 9.53865 16.414 9.60842C16.3999 9.6789 16.3929 9.75008 16.3929 9.82127C16.3929 9.89316 16.3999 9.96434 16.414 10.0348C16.4281 10.1046 16.4486 10.173 16.476 10.2392C16.5035 10.3055 16.5374 10.3682 16.5775 10.4281C16.617 10.4873 16.6621 10.5423 16.7129 10.593C16.7636 10.6438 16.8186 10.6889 16.8785 10.729C16.9384 10.7685 17.0011 10.8023 17.0674 10.8298C17.1336 10.8573 17.202 10.8778 17.2725 10.8919C17.3429 10.906 17.4134 10.913 17.4853 10.913H18.5777C18.6849 10.913 18.792 10.9179 18.8984 10.9285C19.0056 10.9391 19.1113 10.9546 19.217 10.9757C19.322 10.9969 19.4263 11.0229 19.5285 11.054C19.6314 11.085 19.7322 11.1209 19.8316 11.1618C19.931 11.2034 20.0275 11.2492 20.122 11.2992C20.2171 11.35 20.3087 11.4049 20.3982 11.4649C20.487 11.5241 20.573 11.5882 20.6562 11.6559C20.7394 11.7242 20.819 11.7961 20.8944 11.8715C20.9705 11.9476 21.0424 12.0273 21.1108 12.1097C21.1785 12.1929 21.2426 12.2789 21.3018 12.3677C21.3617 12.4572 21.4167 12.5488 21.4674 12.6433C21.5182 12.7377 21.564 12.835 21.6049 12.9337C21.6457 13.033 21.6824 13.1338 21.7134 13.2367C21.7444 13.3389 21.7705 13.4432 21.7916 13.5482C21.8121 13.6533 21.8283 13.759 21.8388 13.8661C21.8487 13.9725 21.8544 14.0797 21.8544 14.1868C21.8544 14.2939 21.8487 14.401 21.8388 14.5075C21.8283 14.6146 21.8121 14.7203 21.7916 14.8253C21.7705 14.9303 21.7444 15.0347 21.7134 15.1369C21.6824 15.2398 21.6457 15.3405 21.6049 15.4399C21.564 15.5386 21.5182 15.6358 21.4674 15.7303C21.4167 15.8247 21.3617 15.9164 21.3018 16.0059C21.2426 16.0947 21.1785 16.1807 21.1108 16.2638C21.0424 16.3463 20.9705 16.4259 20.8944 16.502C20.819 16.5775 20.7394 16.6493 20.6562 16.7177C20.573 16.7854 20.487 16.8495 20.3982 16.9087C20.3087 16.9686 20.2171 17.0236 20.122 17.0743C20.0275 17.1244 19.931 17.1702 19.8316 17.2118C19.7322 17.2527 19.6314 17.2886 19.5285 17.3196C19.4263 17.3506 19.322 17.3767 19.217 17.3978C19.1113 17.419 19.0056 17.4345 18.8984 17.4451C18.792 17.4556 18.6849 17.4606 18.5777 17.4606Z" fill="white"/>
<path d="M20.2813 16.9807C20.1347 17.2196 19.9606 17.4367 19.7583 17.6319C19.556 17.8264 19.3326 17.9928 19.088 18.1302C18.8435 18.2676 18.5855 18.372 18.3135 18.4438C18.0421 18.515 17.7658 18.551 17.4853 18.5524C14.0339 18.5524 13.1163 16.4133 13.1163 15.2779H14.4491C14.8966 16.3259 16.0652 17.4607 18.5778 17.4607C19.1909 17.4614 19.759 17.3007 20.2813 16.9807Z" fill="#08449E"/>
<path d="M19.6702 14.1869C19.6702 14.2588 19.6631 14.3292 19.649 14.3997C19.6349 14.4702 19.6138 14.5386 19.587 14.6048C19.5595 14.6704 19.5257 14.7338 19.4855 14.793C19.446 14.8529 19.4009 14.9079 19.3502 14.9586C19.2994 15.0094 19.2438 15.0545 19.1846 15.0939C19.1247 15.1341 19.0619 15.1679 18.9957 15.1954C18.9294 15.2222 18.8611 15.2434 18.7906 15.2575C18.7201 15.2708 18.6496 15.2779 18.5777 15.2779C18.5777 15.2067 18.5707 15.1355 18.5566 15.065C18.5425 14.9953 18.522 14.9269 18.4946 14.8607C18.4671 14.7944 18.4332 14.7317 18.3938 14.6718C18.3536 14.6126 18.3085 14.5569 18.2577 14.5068C18.207 14.4561 18.152 14.4103 18.0921 14.3708C18.0322 14.3306 17.9695 14.2975 17.9032 14.27C17.837 14.2425 17.7686 14.2221 17.6981 14.208C17.6284 14.1939 17.5572 14.1869 17.4853 14.1869H16.3929V14.1544L16.0651 14.165H16.0546C15.8854 14.1467 15.7191 14.1157 15.5549 14.072C15.3906 14.0283 15.2306 13.9719 15.0756 13.9028C14.9198 13.8345 14.7711 13.7534 14.628 13.6618C14.485 13.5695 14.3504 13.4673 14.2235 13.3545C14.0966 13.2417 13.9789 13.1191 13.8711 12.988C13.7633 12.8569 13.666 12.7181 13.58 12.5722C13.4933 12.4256 13.4193 12.2733 13.3566 12.1155C13.2939 11.9576 13.2438 11.7962 13.2065 11.6306C13.1691 11.4649 13.1444 11.2972 13.1332 11.1273C13.1219 10.9582 13.124 10.789 13.1388 10.6199C13.1543 10.4507 13.1825 10.2837 13.2234 10.1188C13.2643 9.95385 13.3178 9.79316 13.3841 9.63669C13.4503 9.48093 13.5279 9.3301 13.6174 9.18562C13.7069 9.04114 13.807 8.90511 13.9176 8.77613C14.0283 8.64716 14.1488 8.52805 14.2778 8.41739C14.4074 8.30744 14.5442 8.20807 14.6894 8.11926C14.5378 8.36735 14.4222 8.63095 14.3412 8.91005C14.2601 9.18915 14.2171 9.47318 14.2122 9.76426C14.2066 10.0546 14.2397 10.3401 14.3109 10.622C14.3821 10.9039 14.4885 11.171 14.6309 11.4241C14.7732 11.6778 14.9459 11.9083 15.1496 12.1155C15.3533 12.3227 15.5809 12.4996 15.8318 12.6462C16.082 12.7935 16.3477 12.9048 16.6283 12.981C16.9088 13.0571 17.1949 13.0951 17.4853 13.0958H18.5777C18.6496 13.0958 18.7201 13.1029 18.7906 13.1163C18.8611 13.1304 18.9294 13.1515 18.9957 13.179C19.0619 13.2058 19.1247 13.2396 19.1846 13.2798C19.2438 13.3193 19.2994 13.3644 19.3502 13.4151C19.4009 13.4659 19.446 13.5208 19.4855 13.5807C19.5257 13.6399 19.5595 13.7034 19.587 13.7689C19.6138 13.8352 19.6349 13.9035 19.649 13.974C19.6631 14.0445 19.6702 14.115 19.6702 14.1869Z" fill="#08449E"/>
<path d="M20.7619 10.913H18.5778C18.5665 10.7601 18.403 9.82131 16.3929 9.82131C16.3929 9.75013 16.3999 9.67894 16.414 9.60846C16.4281 9.53869 16.4486 9.47032 16.4761 9.40407C16.5036 9.33782 16.5374 9.27509 16.5776 9.21519C16.617 9.15598 16.6621 9.1003 16.7129 9.05026C16.7636 8.99952 16.8186 8.95441 16.8785 8.91424C16.9384 8.87477 17.0011 8.84094 17.0674 8.81345C17.1336 8.78596 17.202 8.76553 17.2725 8.75143C17.343 8.73733 17.4134 8.73029 17.4853 8.73029C19.4954 8.73029 19.6589 9.66908 19.6702 9.82131H20.5216C20.6774 10.1688 20.7577 10.5325 20.7619 10.913Z" fill="#08449E"/>
<path d="M28.4076 17.4606C24.9519 17.4606 24.0385 15.3194 24.0385 14.1868H25.131L26.2234 14.1551C26.2361 14.3425 26.3982 15.2778 28.4076 15.2778C28.4795 15.2778 28.5506 15.2708 28.6211 15.2574C28.6909 15.2433 28.7593 15.2221 28.8255 15.1953C28.8918 15.1679 28.9552 15.134 29.0144 15.0939C29.0743 15.0544 29.1293 15.0093 29.18 14.9585C29.2308 14.9078 29.2759 14.8528 29.3161 14.7929C29.3555 14.7337 29.3893 14.6703 29.4168 14.6047C29.4443 14.5385 29.4648 14.4701 29.4789 14.3996C29.493 14.3292 29.5 14.2587 29.5 14.1868C29.5 14.1149 29.493 14.0444 29.4789 13.9739C29.4648 13.9035 29.4443 13.8351 29.4168 13.7688C29.3893 13.7033 29.3555 13.6399 29.3161 13.5807C29.2759 13.5208 29.2308 13.4658 29.18 13.415C29.1293 13.3643 29.0743 13.3192 29.0144 13.2797C28.9552 13.2395 28.8918 13.2057 28.8255 13.1789C28.7593 13.1514 28.6909 13.1303 28.6211 13.1162C28.5506 13.1028 28.4795 13.0958 28.4076 13.0958H27.3158C27.208 13.0958 27.1009 13.0901 26.9944 13.0795C26.8873 13.069 26.7816 13.0535 26.6766 13.0323C26.5709 13.0119 26.4673 12.9858 26.3644 12.9548C26.2615 12.9231 26.1607 12.8871 26.0613 12.8463C25.9626 12.8054 25.8654 12.7596 25.7709 12.7088C25.6765 12.6581 25.5841 12.6031 25.4953 12.5439C25.4058 12.484 25.3198 12.4206 25.2367 12.3522C25.1535 12.2845 25.0746 12.2126 24.9985 12.1365C24.9223 12.0611 24.8505 11.9815 24.7828 11.8983C24.7144 11.8158 24.651 11.7299 24.5911 11.6404C24.5312 11.5515 24.4762 11.4592 24.4255 11.3648C24.3754 11.2703 24.3296 11.1738 24.288 11.0744C24.2471 10.9757 24.2112 10.8742 24.1802 10.772C24.1485 10.6691 24.1224 10.5655 24.102 10.4605C24.0808 10.3548 24.0653 10.2491 24.0547 10.1427C24.0442 10.0355 24.0385 9.9291 24.0385 9.82127C24.0385 9.71414 24.0442 9.60772 24.0547 9.50059C24.0653 9.39416 24.0808 9.28774 24.102 9.18272C24.1224 9.07771 24.1485 8.9741 24.1802 8.8712C24.2112 8.7683 24.2471 8.66752 24.288 8.56884C24.3296 8.46947 24.3754 8.37291 24.4255 8.27847C24.4762 8.18402 24.5312 8.0917 24.5911 8.00289C24.651 7.91338 24.7144 7.8274 24.7828 7.74494C24.8505 7.66177 24.9223 7.58213 24.9985 7.50671C25.0746 7.4306 25.1535 7.35871 25.2367 7.29105C25.3198 7.22268 25.4058 7.15925 25.4953 7.09934C25.5841 7.04014 25.6765 6.98516 25.7709 6.93442C25.8654 6.88367 25.9626 6.83786 26.0613 6.79698C26.1607 6.75611 26.2615 6.72016 26.3644 6.68844C26.4673 6.65743 26.5709 6.63136 26.6766 6.61092C26.7816 6.58977 26.8873 6.57427 26.9944 6.5637C27.1009 6.55312 27.208 6.54749 27.3158 6.54749C30.7715 6.54749 31.6842 8.68866 31.6842 9.82127H29.5C29.488 9.66551 29.3266 8.73024 27.3158 8.73024C27.2439 8.73024 27.1728 8.73729 27.1023 8.75139C27.0318 8.76548 26.9641 8.78592 26.8979 8.81341C26.8309 8.8409 26.7682 8.87473 26.709 8.9142C26.6491 8.95437 26.5941 8.99948 26.5434 9.05022C26.4926 9.10026 26.4475 9.15594 26.4074 9.21514C26.3672 9.27505 26.3341 9.33778 26.3066 9.40403C26.2791 9.47028 26.2579 9.53865 26.2445 9.60842C26.2304 9.6789 26.2234 9.75008 26.2234 9.82127C26.2234 9.89316 26.2304 9.96434 26.2445 10.0348C26.2579 10.1046 26.2791 10.173 26.3066 10.2392C26.3341 10.3055 26.3672 10.3682 26.4074 10.4281C26.4475 10.4873 26.4926 10.5423 26.5434 10.593C26.5941 10.6438 26.6491 10.6889 26.709 10.729C26.7682 10.7685 26.8309 10.8023 26.8979 10.8298C26.9641 10.8573 27.0318 10.8778 27.1023 10.8919C27.1728 10.906 27.2439 10.913 27.3158 10.913H28.4076C28.5154 10.913 28.6218 10.9179 28.729 10.9285C28.8361 10.9391 28.9418 10.9546 29.0468 10.9757C29.1525 10.9969 29.2561 11.0229 29.359 11.054C29.4619 11.085 29.5627 11.1209 29.6614 11.1618C29.7608 11.2034 29.858 11.2492 29.9525 11.2992C30.0469 11.35 30.1393 11.4049 30.2281 11.4649C30.3176 11.5241 30.4036 11.5882 30.4867 11.6559C30.5692 11.7242 30.6488 11.7961 30.7249 11.8715C30.8004 11.9476 30.8729 12.0273 30.9406 12.1097C31.009 12.1929 31.0724 12.2789 31.1323 12.3677C31.1922 12.4572 31.2472 12.5488 31.2972 12.6433C31.348 12.7377 31.3938 12.835 31.4354 12.9337C31.4763 13.033 31.5122 13.1338 31.5432 13.2367C31.5742 13.3389 31.6003 13.4432 31.6214 13.5482C31.6426 13.6533 31.6581 13.759 31.6687 13.8661C31.6792 13.9725 31.6842 14.0797 31.6842 14.1868C31.6842 14.2939 31.6792 14.401 31.6687 14.5075C31.6581 14.6146 31.6426 14.7203 31.6214 14.8253C31.6003 14.9303 31.5742 15.0347 31.5432 15.1369C31.5122 15.2398 31.4763 15.3405 31.4354 15.4399C31.3938 15.5386 31.348 15.6358 31.2972 15.7303C31.2472 15.8247 31.1922 15.9164 31.1323 16.0059C31.0724 16.0947 31.009 16.1807 30.9406 16.2638C30.8729 16.3463 30.8004 16.4259 30.7249 16.502C30.6488 16.5775 30.5692 16.6493 30.4867 16.7177C30.4036 16.7854 30.3176 16.8495 30.2281 16.9087C30.1393 16.9686 30.0469 17.0236 29.9525 17.0743C29.858 17.1244 29.7608 17.1702 29.6614 17.2118C29.5627 17.2527 29.4619 17.2886 29.359 17.3196C29.2561 17.3506 29.1525 17.3767 29.0468 17.3978C28.9418 17.419 28.8361 17.4345 28.729 17.4451C28.6218 17.4556 28.5154 17.4606 28.4076 17.4606Z" fill="white"/>
<path d="M30.1118 16.9807C29.9652 17.2196 29.7911 17.4367 29.5888 17.6319C29.3865 17.8264 29.1631 17.9928 28.9186 18.1302C28.6733 18.2676 28.4153 18.372 28.144 18.4438C27.8726 18.515 27.5964 18.551 27.3158 18.5524C23.8637 18.5524 22.9468 16.4133 22.9468 15.2779H24.2789C24.7271 16.3259 25.8957 17.4607 28.4076 17.4607C29.0208 17.4614 29.5888 17.3007 30.1118 16.9807Z" fill="#08449E"/>
<path d="M29.5 14.1869C29.5 14.2588 29.4929 14.3292 29.4788 14.3997C29.4647 14.4702 29.4443 14.5386 29.4168 14.6048C29.3893 14.6704 29.3555 14.7338 29.316 14.793C29.2759 14.8529 29.2307 14.9079 29.18 14.9586C29.1293 15.0094 29.0743 15.0545 29.0144 15.0939C28.9552 15.1341 28.8917 15.1679 28.8255 15.1954C28.7592 15.2222 28.6909 15.2434 28.6211 15.2575C28.5506 15.2708 28.4794 15.2779 28.4075 15.2779C28.4075 15.2067 28.4005 15.1355 28.3864 15.065C28.373 14.9953 28.3519 14.9269 28.3244 14.8607C28.2969 14.7944 28.2638 14.7317 28.2236 14.6718C28.1841 14.6126 28.1383 14.5569 28.0876 14.5068C28.0368 14.4561 27.9818 14.4103 27.9226 14.3708C27.8627 14.3306 27.8 14.2975 27.7338 14.27C27.6675 14.2425 27.5991 14.2221 27.5287 14.208C27.4582 14.1939 27.387 14.1869 27.3158 14.1869H26.2234V14.1544L25.8956 14.165H25.8844C25.7159 14.1467 25.5489 14.1157 25.3847 14.072C25.2204 14.0283 25.0612 13.9719 24.9054 13.9028C24.7503 13.8345 24.6009 13.7534 24.4586 13.6618C24.3155 13.5695 24.1802 13.4673 24.0533 13.3545C23.9264 13.2417 23.8094 13.1191 23.7016 12.988C23.5938 12.8569 23.4965 12.7181 23.4098 12.5722C23.3238 12.4256 23.2491 12.2733 23.1864 12.1155C23.1244 11.9576 23.0743 11.7962 23.037 11.6306C22.9996 11.4649 22.975 11.2972 22.9637 11.1273C22.9524 10.9582 22.9545 10.789 22.9693 10.6199C22.9841 10.4507 23.0123 10.2837 23.0532 10.1188C23.0948 9.95385 23.1483 9.79316 23.2139 9.63669C23.2801 9.48093 23.3577 9.3301 23.4472 9.18562C23.5367 9.04114 23.6368 8.90511 23.7481 8.77613C23.8588 8.64716 23.9786 8.52805 24.1083 8.41739C24.2373 8.30744 24.3747 8.20807 24.5192 8.11926C24.3683 8.36735 24.2521 8.63095 24.171 8.91005C24.09 9.18915 24.047 9.47318 24.042 9.76426C24.0371 10.0546 24.0695 10.3401 24.1407 10.622C24.2119 10.9039 24.319 11.171 24.4607 11.4241C24.603 11.6778 24.7764 11.9083 24.9801 12.1155C25.1838 12.3227 25.4107 12.4996 25.6617 12.6462C25.9126 12.7935 26.1783 12.9048 26.4588 12.981C26.7393 13.0571 27.0247 13.0951 27.3158 13.0958H28.4075C28.4794 13.0958 28.5506 13.1029 28.6211 13.1163C28.6909 13.1304 28.7592 13.1515 28.8255 13.179C28.8917 13.2058 28.9552 13.2396 29.0144 13.2798C29.0743 13.3193 29.1293 13.3644 29.18 13.4151C29.2307 13.4659 29.2759 13.5208 29.316 13.5807C29.3555 13.6399 29.3893 13.7034 29.4168 13.7689C29.4443 13.8352 29.4647 13.9035 29.4788 13.974C29.4929 14.0445 29.5 14.115 29.5 14.1869Z" fill="#08449E"/>
<path d="M30.5924 10.913H28.4075C28.397 10.7601 28.2328 9.82131 26.2234 9.82131C26.2234 9.75013 26.2304 9.67894 26.2445 9.60846C26.2579 9.53869 26.2791 9.47032 26.3065 9.40407C26.334 9.33782 26.3672 9.27509 26.4073 9.21519C26.4475 9.15598 26.4926 9.1003 26.5434 9.05026C26.5941 8.99952 26.6491 8.95441 26.709 8.91424C26.7682 8.87477 26.8309 8.84094 26.8979 8.81345C26.9641 8.78596 27.0318 8.76553 27.1023 8.75143C27.1727 8.73733 27.2439 8.73029 27.3158 8.73029C29.3252 8.73029 29.4894 9.66908 29.5 9.82131H30.3521C30.5078 10.1688 30.5875 10.5325 30.5924 10.913Z" fill="#08449E"/>
<path d="M12.0238 17.4606H10.9321C10.7531 17.4606 10.5748 17.4521 10.3964 17.4345C10.2188 17.4169 10.0419 17.3908 9.86643 17.3556C9.69094 17.321 9.51756 17.2773 9.34629 17.2259C9.17573 17.1737 9.00728 17.1138 8.84166 17.0454C8.67673 16.9771 8.51534 16.901 8.35746 16.8164C8.19959 16.7325 8.04665 16.6402 7.89793 16.5408C7.74922 16.4421 7.60544 16.3357 7.4673 16.2222C7.32916 16.1088 7.19666 15.989 7.0705 15.8628C6.94364 15.7359 6.82382 15.6041 6.71035 15.466C6.59688 15.3279 6.49045 15.1841 6.39108 15.0354C6.2917 14.8874 6.20008 14.7337 6.1155 14.5765C6.03093 14.4187 5.95481 14.2573 5.88644 14.0923C5.81808 13.9274 5.75746 13.759 5.70601 13.5884C5.65386 13.4171 5.61087 13.2438 5.57563 13.069C5.54109 12.8935 5.51431 12.7166 5.49669 12.539C5.47977 12.3614 5.47061 12.183 5.47061 12.004C5.47061 11.8257 5.47977 11.6474 5.49669 11.4691C5.51431 11.2915 5.54109 11.1153 5.57563 10.9398C5.61087 10.7643 5.65386 10.5916 5.70601 10.4203C5.75746 10.2491 5.81808 10.0813 5.88644 9.91642C5.95481 9.75079 6.03093 9.58939 6.1155 9.43222C6.20008 9.27435 6.2917 9.12141 6.39108 8.97269C6.49045 8.82398 6.59688 8.68091 6.71035 8.54277C6.82382 8.40463 6.94364 8.27212 7.0705 8.14597C7.19666 8.01981 7.32916 7.89999 7.4673 7.78652C7.60544 7.67305 7.74922 7.56662 7.89793 7.46725C8.04665 7.36787 8.19959 7.27625 8.35746 7.19167C8.51534 7.1078 8.67673 7.03168 8.84166 6.96332C9.00728 6.89495 9.17573 6.83434 9.34629 6.78289C9.51756 6.73073 9.69094 6.68774 9.86643 6.6525C10.0419 6.61797 10.2188 6.59118 10.3964 6.57427C10.5748 6.55665 10.7531 6.54749 10.9321 6.54749H12.0238V8.73024H10.9321C10.8243 8.73024 10.7178 8.73588 10.6107 8.74575C10.5043 8.75632 10.3978 8.77253 10.2928 8.79297C10.1871 8.81411 10.0835 8.84019 9.98061 8.8712C9.87771 8.90221 9.77692 8.93816 9.67825 8.97974C9.57888 9.02062 9.48161 9.06643 9.38717 9.11718C9.29273 9.16722 9.2004 9.22219 9.11159 9.2821C9.02209 9.3413 8.9361 9.40544 8.85293 9.4731C8.77047 9.54146 8.69083 9.61335 8.61471 9.68947C8.5393 9.76489 8.46741 9.84453 8.39904 9.92699C8.33068 10.0102 8.26725 10.0961 8.20734 10.1856C8.14814 10.2745 8.09246 10.3661 8.04242 10.4612C7.99167 10.5557 7.94586 10.6522 7.90428 10.7516C7.8634 10.8503 7.82745 10.9511 7.79644 11.054C7.76543 11.1562 7.73935 11.2605 7.71821 11.3655C7.69707 11.4705 7.68156 11.5769 7.67099 11.6833C7.66042 11.7898 7.65548 11.8969 7.65548 12.004C7.65548 12.1112 7.66042 12.2183 7.67099 12.3254C7.68156 12.4318 7.69707 12.5376 7.71821 12.6426C7.73935 12.7483 7.76543 12.8519 7.79644 12.9548C7.82745 13.057 7.8634 13.1578 7.90428 13.2572C7.94586 13.3558 7.99167 13.4531 8.04242 13.5475C8.09246 13.642 8.14814 13.7336 8.20734 13.8231C8.26725 13.9119 8.33068 13.9986 8.39904 14.0811C8.46741 14.1642 8.5393 14.2432 8.61471 14.3193C8.69083 14.3947 8.77047 14.4673 8.85293 14.535C8.9361 14.6033 9.02209 14.6668 9.11159 14.7267C9.2004 14.7859 9.29273 14.8408 9.38717 14.8916C9.48161 14.9423 9.57888 14.9881 9.67825 15.029C9.77692 15.0699 9.87771 15.1058 9.98061 15.1369C10.0835 15.1686 10.1871 15.1939 10.2928 15.2151C10.3978 15.2362 10.5043 15.2517 10.6107 15.2623C10.7178 15.2729 10.8243 15.2778 10.9321 15.2778H12.0238V17.4606Z" fill="#F2F2F2"/>
<path d="M10.9321 17.4606V18.5523H9.83968C9.55494 18.5523 9.27161 18.5298 8.9904 18.4854C8.70919 18.4417 8.43291 18.3754 8.16226 18.288C7.89092 18.2006 7.62803 18.0928 7.3743 17.9645C7.11987 17.8356 6.87742 17.6883 6.64624 17.5219C6.41578 17.3556 6.1987 17.1723 5.99642 16.9722C5.79414 16.772 5.60878 16.5571 5.43963 16.328C5.27118 16.0989 5.12106 15.8579 4.99068 15.6049C4.85958 15.3526 4.74893 15.0911 4.65872 14.8211C4.5685 14.5512 4.50014 14.2756 4.45292 13.9951C4.4064 13.7146 4.38173 13.432 4.37891 13.1473C4.37609 12.8625 4.39583 12.5799 4.43741 12.298C4.47899 12.0168 4.54172 11.7405 4.627 11.4684C4.71158 11.1971 4.8173 10.9335 4.94345 10.6783C5.06961 10.4232 5.2148 10.1793 5.37902 9.94747C5.54324 9.71489 5.72507 9.4964 5.92383 9.29271C6.12188 9.08832 6.33543 8.90085 6.56308 8.73029C6.20645 9.2018 5.9344 9.717 5.74763 10.2773C5.56086 10.8383 5.46853 11.4134 5.47064 12.0041C5.47064 12.1831 5.4798 12.3614 5.49672 12.539C5.51434 12.7166 5.54112 12.8935 5.57566 13.069C5.6109 13.2438 5.65389 13.4172 5.70604 13.5885C5.75749 13.759 5.81811 13.9275 5.88647 14.0924C5.95484 14.2573 6.03096 14.4187 6.11553 14.5766C6.20011 14.7337 6.29173 14.8874 6.39111 15.0354C6.49048 15.1841 6.59691 15.3279 6.71038 15.466C6.82385 15.6042 6.94367 15.736 7.07053 15.8628C7.19669 15.989 7.32919 16.1088 7.46733 16.2223C7.60547 16.3358 7.74925 16.4422 7.89796 16.5409C8.04668 16.6402 8.19962 16.7326 8.35749 16.8164C8.51537 16.901 8.67677 16.9771 8.84169 17.0455C9.00732 17.1139 9.17576 17.1738 9.34632 17.2259C9.51759 17.2774 9.69097 17.3211 9.86646 17.3556C10.042 17.3908 10.2189 17.4169 10.3965 17.4345C10.5748 17.4522 10.7531 17.4606 10.9321 17.4606Z" fill="#08449E"/>
<path d="M10.9321 8.73029V9.82131H9.8397C9.22652 9.82131 8.65846 9.9813 8.1355 10.302C8.2821 10.0624 8.45689 9.84528 8.65916 9.65075C8.86073 9.45623 9.08416 9.28989 9.32942 9.15246C9.57399 9.01502 9.83195 8.91071 10.1033 8.83882C10.3753 8.76764 10.6509 8.73099 10.9321 8.73029Z" fill="#08449E"/>
</svg>
