<svg width="59" height="65" viewBox="0 0 59 65" fill="none" xmlns="http://www.w3.org/2000/svg">
<mask id="mask0_24_90" style="mask-type:luminance" maskUnits="userSpaceOnUse" x="45" y="0" width="14" height="13">
<path d="M45.8682 0H59V12.6533H45.8682V0Z" fill="white"/>
</mask>
<g mask="url(#mask0_24_90)">
<path d="M45.8837 0L58.9901 12.5809H45.8837V0Z" fill="#FFAF36"/>
</g>
<mask id="mask1_24_90" style="mask-type:luminance" maskUnits="userSpaceOnUse" x="8" y="0" width="51" height="65">
<path d="M8.70001 0H59V65H8.70001V0Z" fill="white"/>
</mask>
<g mask="url(#mask1_24_90)">
<path d="M58.9901 12.5809V65H8.74722V0H45.8837V12.5809H58.9901Z" fill="#FF6D00"/>
</g>
<path d="M10.9321 8.38702V58.7099C10.9321 58.8473 10.9392 58.9841 10.9533 59.1209C10.9674 59.2577 10.9878 59.3931 11.016 59.5278C11.0435 59.6625 11.0787 59.7953 11.1203 59.9273C11.1619 60.0586 11.2098 60.1873 11.2648 60.3146C11.3191 60.4412 11.3804 60.5651 11.448 60.6863C11.515 60.8075 11.589 60.9253 11.6679 61.0397C11.7476 61.1535 11.8329 61.2639 11.9238 61.3702C12.0147 61.4765 12.1106 61.578 12.2113 61.6748C12.3128 61.7723 12.4185 61.8644 12.5292 61.9511C12.6399 62.0384 12.7547 62.1204 12.8738 62.1962C12.993 62.2727 13.1149 62.3431 13.2418 62.4081C13.3679 62.4731 13.4969 62.5313 13.6287 62.5842C13.7612 62.6363 13.8958 62.683 14.0325 62.723C14.1693 62.7622 14.3081 62.7961 14.4484 62.8225C14.5886 62.8496 14.7303 62.8699 14.8727 62.8828C15.015 62.8963 15.1581 62.9031 15.3012 62.9031H52.4369C52.58 62.9031 52.7231 62.8963 52.8655 62.8828C53.0078 62.8699 53.1488 62.8496 53.289 62.8225C53.43 62.7961 53.5681 62.7622 53.7056 62.723C53.8423 62.683 53.9769 62.6363 54.1087 62.5842C54.2412 62.5313 54.3702 62.4731 54.4964 62.4081C54.6225 62.3431 54.7452 62.2727 54.8643 62.1962C54.9834 62.1204 55.0983 62.0384 55.2089 61.9511C55.3196 61.8644 55.4253 61.7723 55.5261 61.6748C55.6276 61.578 55.7234 61.4765 55.8143 61.3702C55.9053 61.2639 55.9898 61.1535 56.0695 61.0397C56.1491 60.9253 56.2224 60.8075 56.2901 60.6863C56.3577 60.5651 56.4183 60.4412 56.4733 60.3146C56.5283 60.1873 56.5762 60.0586 56.6178 59.9273C56.6594 59.7953 56.6939 59.6625 56.7221 59.5278C56.7496 59.3931 56.7707 59.2577 56.7848 59.1209C56.7989 58.9841 56.806 58.8473 56.806 58.7099V56.4836C10.9321 53.7706 10.9321 8.38702 10.9321 8.38702Z" fill="#F54E00"/>
<mask id="mask2_24_90" style="mask-type:luminance" maskUnits="userSpaceOnUse" x="46" y="12" width="13" height="3">
<path d="M46.9508 12.48H59V14.7333H46.9508V12.48Z" fill="white"/>
</mask>
<g mask="url(#mask2_24_90)">
<path d="M46.9761 12.5809H58.9901V14.6771H46.9761V12.5809Z" fill="#F54E00"/>
</g>
<mask id="mask3_24_90" style="mask-type:luminance" maskUnits="userSpaceOnUse" x="0" y="3" width="40" height="17">
<path d="M0 3.12H39.3728V19.9333H0V3.12Z" fill="white"/>
</mask>
<g mask="url(#mask3_24_90)">
<path d="M0.00985718 3.14502H39.3298V19.9191H0.00985718V3.14502Z" fill="#F54100"/>
</g>
<path d="M8.74722 19.9191H37.1456V23.0649H8.74722V19.9191Z" fill="#D63900"/>
<path d="M32.7766 14.6771V6.2901H30.5924V15.7259C30.5924 15.7943 30.5995 15.8627 30.6129 15.9304C30.627 15.9981 30.6481 16.0631 30.6756 16.1268C30.7031 16.1904 30.7362 16.2513 30.7764 16.3082C30.8159 16.3658 30.8617 16.4186 30.9124 16.4673C30.9632 16.5161 31.0181 16.5594 31.0773 16.5973C31.1372 16.6359 31.2 16.6678 31.2662 16.6942C31.3325 16.7206 31.4008 16.7409 31.4713 16.7537C31.5418 16.7673 31.613 16.7741 31.6842 16.7741H36.0532V14.6771H32.7766Z" fill="white"/>
<path d="M8.74724 10.484H5.47064V6.2901H3.28647V16.7741H5.47064V12.5809H8.74724V16.7741H10.9321V6.2901H8.74724V10.484Z" fill="white"/>
<path d="M12.0238 8.38703H14.2087V16.7741H16.3929V8.38703H18.5777V6.2901H12.0238V8.38703Z" fill="white"/>
<path d="M27.5343 6.31243C27.411 6.28738 27.2869 6.28331 27.1622 6.29956C27.0374 6.31581 26.919 6.35238 26.8077 6.4079C26.6963 6.46409 26.5976 6.53654 26.5124 6.62524C26.4271 6.71394 26.3594 6.81415 26.3108 6.92587L24.0385 12.0155L21.7656 6.92587C21.7162 6.81482 21.6486 6.71529 21.5633 6.62659C21.478 6.5379 21.3793 6.46545 21.268 6.40993C21.1566 6.35373 21.0382 6.31784 20.9142 6.30092C20.7894 6.28399 20.6654 6.28805 20.5427 6.31175C20.4194 6.33613 20.3038 6.37946 20.196 6.44243C20.0888 6.50472 19.9951 6.58258 19.9155 6.67602C19.8365 6.76946 19.7752 6.87373 19.7329 6.9868C19.6913 7.10055 19.6702 7.21769 19.6702 7.33889V16.774H21.8544V12.4461L23.0349 15.0901C23.0772 15.1849 23.1322 15.2709 23.2012 15.3501C23.2696 15.4287 23.3485 15.4957 23.438 15.5526C23.5268 15.6088 23.6227 15.6521 23.7249 15.6812C23.8271 15.711 23.9321 15.7252 24.0385 15.7252C24.1457 15.7252 24.25 15.711 24.3529 15.6812C24.4551 15.6521 24.5509 15.6088 24.6397 15.5526C24.7292 15.4957 24.8082 15.4287 24.8765 15.3501C24.9449 15.2709 25.0006 15.1849 25.0429 15.0901L26.2234 12.4461V16.774H28.4076V7.33889C28.4076 7.21769 28.3864 7.10055 28.3441 6.9868C28.3018 6.87305 28.2412 6.76946 28.1616 6.67602C28.082 6.58258 27.9882 6.50472 27.8804 6.44243C27.7725 6.37946 27.657 6.3368 27.5343 6.31243Z" fill="white"/>
<path d="M21.8543 51.371L13.1163 41.9352L21.8543 32.5H26.2234L17.4853 41.9352L26.2234 51.371H21.8543Z" fill="white"/>
<path d="M45.8837 51.371L54.6218 41.9352L45.8837 32.5H41.5147L50.2528 41.9352L41.5147 51.371H45.8837Z" fill="white"/>
<path d="M29.5 51.371L34.9614 32.5H38.238L32.7766 51.371H29.5Z" fill="white"/>
<path d="M13.1163 41.9352L19.9127 34.5969H19.6702L10.9321 44.0321L19.6702 53.4679H24.0385L22.0968 51.371H21.8544L13.1163 41.9352Z" fill="#D63900"/>
<path d="M50.2528 41.9352L43.4564 34.5969H39.3298L48.0679 44.0321L39.3298 53.4679H43.6988L45.6413 51.371H41.5147L50.2528 41.9352Z" fill="#D63900"/>
<path d="M34.3539 34.5969H32.7766L27.3158 53.4679H30.5924L31.1993 51.371H29.5L34.3539 34.5969Z" fill="#D63900"/>
<path d="M30.5924 15.726V7.33893H29.5V16.7741C29.5 16.8431 29.507 16.9115 29.5211 16.9786C29.5352 17.0463 29.5556 17.1119 29.5831 17.1756C29.6106 17.2392 29.6445 17.2995 29.6839 17.3564C29.7241 17.4139 29.7692 17.4667 29.8199 17.5155C29.8707 17.5642 29.9257 17.6076 29.9856 17.6462C30.0448 17.6841 30.1082 17.7166 30.1745 17.743C30.2407 17.7694 30.3091 17.789 30.3789 17.8026C30.4493 17.8161 30.5205 17.8229 30.5924 17.8229H34.9614V16.7741H31.6841C31.613 16.7741 31.5418 16.7673 31.4713 16.7538C31.4008 16.7409 31.3324 16.7206 31.2662 16.6942C31.1999 16.6678 31.1372 16.636 31.0773 16.5974C31.0181 16.5594 30.9631 16.5161 30.9124 16.4674C30.8616 16.4186 30.8158 16.3658 30.7764 16.3083C30.7362 16.2514 30.7031 16.1904 30.6756 16.1268C30.6481 16.0631 30.6269 15.9981 30.6128 15.9304C30.5995 15.8627 30.5924 15.7943 30.5924 15.726Z" fill="#D63900"/>
<path d="M7.65549 7.33893H8.74722V10.484H7.65549V7.33893Z" fill="#D63900"/>
<path d="M3.28647 7.33893H2.19403V17.8229H4.3782V16.7741H3.28647V7.33893Z" fill="#D63900"/>
<path d="M8.74725 12.5809H5.47064V13.629H7.65551V17.8229H9.83968V16.774H8.74725V12.5809Z" fill="#D63900"/>
<path d="M16.3929 8.38702H17.4853V9.43515H16.3929V8.38702Z" fill="#D63900"/>
<path d="M14.2087 8.38705H12.0239V7.33893H10.9321V9.43518H13.1163V17.8229H15.3012V16.7741H14.2087V8.38705Z" fill="#D63900"/>
<path d="M19.6702 7.35308C19.5969 7.34766 19.5236 7.35037 19.4517 7.36052C19.3284 7.3849 19.2128 7.42823 19.1049 7.49052C18.9971 7.55282 18.9034 7.63068 18.8237 7.72479C18.7448 7.81823 18.6835 7.92183 18.6412 8.03558C18.5989 8.14933 18.5778 8.26646 18.5778 8.38698V17.8228H20.7619V16.774H19.6702V7.35308Z" fill="#D63900"/>
<path d="M26.1226 7.34906C26.0254 7.35786 25.9302 7.37885 25.8386 7.41203C25.7463 7.44521 25.661 7.48922 25.5813 7.54474C25.5017 7.60026 25.4312 7.66458 25.3699 7.73771C25.3086 7.81151 25.2585 7.8914 25.2198 7.97807L23.7263 11.3229L24.0385 12.0209L26.1226 7.34906Z" fill="#D63900"/>
<path d="M23.0349 15.0901L21.8544 12.4461V15.9351L21.9425 16.1335C21.9848 16.2276 22.0404 16.3143 22.1088 16.3928C22.1772 16.4714 22.2561 16.5391 22.3456 16.5953C22.4344 16.6521 22.5303 16.6948 22.6325 16.7246C22.7354 16.7537 22.8397 16.7686 22.9468 16.7686C23.0532 16.7686 23.1582 16.7537 23.2604 16.7246C23.3626 16.6948 23.4585 16.6521 23.548 16.5953C23.6368 16.5391 23.7157 16.4714 23.7841 16.3928C23.8532 16.3143 23.9081 16.2276 23.9504 16.1335L24.1414 15.7056C24.1062 15.7056 24.0738 15.7205 24.0385 15.7205C23.9321 15.7205 23.8278 15.7063 23.7256 15.6771C23.6234 15.648 23.5283 15.6054 23.4388 15.5499C23.3492 15.4937 23.2703 15.4266 23.2019 15.3481C23.1329 15.2702 23.0779 15.1842 23.0349 15.0901Z" fill="#D63900"/>
<path d="M26.2234 12.4461L25.131 14.8924V17.8228H27.3158V16.774H26.2234V12.4461Z" fill="#D63900"/>
</svg>
