<svg width="57" height="57" viewBox="0 0 57 57" fill="none" xmlns="http://www.w3.org/2000/svg">
<path d="M5.17929 36.4135C5.23095 36.531 5.28973 36.6391 5.35266 36.7478C5.38235 36.8107 5.42273 36.876 5.45895 36.9348C5.51773 37.0524 5.58066 37.1652 5.64182 37.278L5.99629 37.8735C6.0616 37.9845 6.12454 38.0926 6.19935 38.2013C6.32345 38.4132 6.4701 38.6205 6.59835 38.833C6.65713 38.9209 6.71116 39.0088 6.77707 39.0972C7.02526 39.4826 7.25088 39.8032 7.49254 40.1149C7.66413 40.3471 7.83513 40.5751 8.02038 40.8031C8.08154 40.8886 8.14923 40.9747 8.21216 41.0602L8.71091 41.6652C8.77207 41.7353 8.83263 41.8166 8.89854 41.8885C9.11941 42.155 9.35395 42.4121 9.58907 42.674C9.58907 42.6787 9.5956 42.6829 9.60035 42.69C9.89129 43.0552 10.2048 43.3805 10.548 43.6691L10.5569 43.678C10.7374 43.8633 10.9185 44.0461 11.1103 44.2266L11.3377 44.4457C11.5882 44.6803 11.8388 44.913 12.103 45.1386C12.1078 45.1386 12.1095 45.1428 12.1143 45.1452L12.2431 45.258C12.4729 45.4587 12.7057 45.6576 12.9426 45.8428L13.2246 46.0797C13.4164 46.2329 13.6153 46.3772 13.8112 46.5286L14.1182 46.7631C14.3284 46.9211 14.5516 47.0749 14.766 47.228C14.8449 47.2845 14.9239 47.3409 15.0053 47.3931L15.0706 47.4448L15.7047 47.8604L15.9754 48.0409C16.3074 48.2529 16.6369 48.4518 16.9664 48.6501C17.0614 48.6976 17.1558 48.7492 17.2443 48.8039C17.4877 48.9434 17.7407 49.0859 17.9865 49.2141C18.1219 49.2913 18.262 49.3566 18.4021 49.4267C18.5713 49.5211 18.7471 49.6137 18.9276 49.7087C18.9774 49.7242 19.0178 49.7402 19.0588 49.7628L19.0677 49.7539C19.1419 49.7877 19.212 49.8239 19.2844 49.8595C19.5552 49.9949 19.8372 50.1238 20.1305 50.2502C20.1845 50.2728 20.2433 50.2954 20.3021 50.3268C20.6269 50.4693 20.9523 50.6047 21.2883 50.7353C21.3649 50.7579 21.4463 50.7965 21.5252 50.8256C21.8298 50.9408 22.1439 51.0583 22.455 51.1688L22.5679 51.2091C22.9134 51.3267 23.2542 51.4395 23.6063 51.5458C23.6871 51.5684 23.7708 51.5975 23.8569 51.62C24.2155 51.7287 24.5629 51.8569 24.9262 51.9246C48.111 56.129 54.8471 38.054 54.8471 38.054C49.1874 45.3892 39.1424 47.323 29.6293 45.1701C29.2772 45.0888 28.9251 44.976 28.5689 44.872C27.9235 44.685 27.4948 44.5496 27.0726 44.4006L27.287 44.4659L27.1469 44.4119C26.8399 44.308 26.5442 44.1928 26.2444 44.0776C26.1879 44.0527 26.1042 44.0212 26.0211 43.9921L25.9962 43.985C25.6643 43.852 25.3419 43.7166 25.0212 43.5747C24.9512 43.5521 24.8924 43.5201 24.8223 43.4934C24.2309 43.2315 23.9626 43.105 23.6942 42.9744L24.0053 43.1116C23.9222 43.076 23.8474 43.0374 23.766 42.9946C23.5541 42.8955 23.3421 42.7826 23.1343 42.6764C22.9401 42.5837 22.8024 42.5113 22.667 42.4371L22.7121 42.4596C22.4574 42.3243 22.2021 42.1776 21.945 42.0399C21.8684 41.9858 21.7805 41.9407 21.6921 41.8908C21.2046 41.6064 20.8822 41.4057 20.5592 41.2003L20.7017 41.2858C20.593 41.2181 20.5052 41.1599 20.4214 41.0988L20.4351 41.1077C20.1578 40.9361 19.9364 40.7894 19.722 40.6386C19.6454 40.5887 19.5754 40.5347 19.4964 40.4807C19.2072 40.2818 18.9911 40.1262 18.7785 39.9659L18.8332 40.0039C18.7382 39.9273 18.6366 39.8555 18.5351 39.7806C18.3362 39.6251 18.1355 39.476 17.9372 39.3134L17.6706 39.1014C17.3838 38.871 17.1445 38.6703 16.91 38.4649C16.8874 38.4423 16.8625 38.4221 16.8358 38.4043L16.8334 38.402L16.0503 37.6906L15.8246 37.4787C15.6394 37.2916 15.45 37.1129 15.2606 36.9283L15.0415 36.7026C14.8069 36.4699 14.5807 36.2354 14.3575 35.9913L14.3438 35.9759L14.3058 35.9444C14.0665 35.6826 13.8338 35.4184 13.5993 35.1476C13.5381 35.0775 13.4817 35.0033 13.4188 34.9285L12.9064 34.308C12.7282 34.0866 12.4777 33.7594 12.2295 33.4257L12.1392 33.2993C6.86257 26.1315 4.95366 16.2396 9.17582 8.12427L5.44766 12.8386C0.651946 19.697 1.2457 28.6164 4.9127 35.8993C4.99641 36.0774 5.08904 36.2443 5.17929 36.4135Z" fill="#1266A9"/>
<path d="M21.3311 26.5329C21.3222 26.5216 21.3156 26.5086 21.3061 26.4973C21.2996 26.4878 21.2931 26.4789 21.2859 26.47L21.3311 26.5329Z" fill="black"/>
<mask id="mask0_28_231" style="mask-type:luminance" maskUnits="userSpaceOnUse" x="17" y="3" width="40" height="33">
<path d="M17.632 3.03998H56.1699V35.872H17.632V3.03998Z" fill="white"/>
</mask>
<g mask="url(#mask0_28_231)">
<path d="M23.8545 29.4939L24.0575 29.697C24.3146 29.9458 24.5789 30.1868 24.8472 30.4285L24.8811 30.4576C25.1518 30.6969 25.4564 30.9474 25.7705 31.1915L25.818 31.2271C25.8946 31.2793 25.9599 31.3405 26.0341 31.3921C26.3506 31.6356 26.6689 31.8683 27.0002 32.1005L27.034 32.1213C27.1741 32.2228 27.3232 32.3154 27.4811 32.4146C27.544 32.455 27.6165 32.509 27.6842 32.55C27.9235 32.7031 28.158 32.8456 28.3996 32.9923C28.4376 33.0077 28.4715 33.0285 28.5077 33.044C28.7108 33.1681 28.9322 33.288 29.1442 33.3961C29.219 33.4412 29.2909 33.475 29.3675 33.5178C29.5189 33.5926 29.6679 33.6716 29.8122 33.7481L29.8846 33.7796C30.1892 33.9286 30.5009 34.0688 30.8055 34.2065C30.8821 34.2356 30.9474 34.2606 31.0127 34.292C31.2633 34.4007 31.5186 34.5046 31.7692 34.599C31.882 34.6376 31.9877 34.6827 32.094 34.7166C32.3243 34.8021 32.5654 34.881 32.7934 34.96L33.1099 35.0615C33.4388 35.1631 33.7731 35.2966 34.1228 35.3507C52.0261 38.2981 56.1699 24.583 56.1699 24.583C52.4394 29.925 45.22 32.471 37.5262 30.4825C37.0589 30.3632 36.7205 30.2634 36.3844 30.1554L36.5126 30.1916C36.4046 30.1619 36.3096 30.1281 36.2057 30.0966C35.9711 30.0152 35.7295 29.9363 35.5021 29.8531L35.1767 29.7308C34.9238 29.6293 34.6667 29.5349 34.4209 29.4262C34.3443 29.3924 34.2742 29.3698 34.2154 29.336C33.8995 29.1941 33.5813 29.054 33.272 28.9049L32.807 28.6639L32.5387 28.5285C32.3309 28.4198 32.1391 28.307 31.9408 28.1918C31.8844 28.1651 31.8392 28.1402 31.7941 28.1105L31.8006 28.1129C31.5614 27.9638 31.3132 27.8196 31.0828 27.6681C31.0062 27.6254 30.9361 27.5737 30.8643 27.5286L30.3946 27.224C30.0699 26.9978 29.7516 26.7567 29.4286 26.5216C29.3562 26.4563 29.2867 26.4023 29.2166 26.3435C25.8335 23.6966 23.1657 20.0788 21.8999 15.9826C20.5663 11.7236 20.8596 6.94865 23.164 3.07324L20.3312 7.06324C16.8536 12.0306 17.0501 18.6705 19.7582 23.9246C20.2522 24.8947 20.7533 25.7141 21.3061 26.4949C21.8209 27.2306 22.3897 28.0927 23.0755 28.6841C23.3195 28.9613 23.5814 29.2256 23.8545 29.4939Z" fill="#1266A9"/>
</g>
<path d="M7.50392 40.1287L7.49438 40.115L7.47888 40.0947L7.50392 40.1287Z" fill="black"/>
<path d="M16.8875 38.4495L16.91 38.4649L16.9148 38.472L16.8875 38.4495Z" fill="black"/>
<mask id="mask1_28_231" style="mask-type:luminance" maskUnits="userSpaceOnUse" x="31" y="0" width="24" height="22">
<path d="M31.008 0.651917H54.72V21.128H31.008V0.651917Z" fill="white"/>
</mask>
<g mask="url(#mask1_28_231)">
<path d="M32.848 2.7437C30.796 5.73857 30.6001 9.45782 32.0126 12.7597C33.5136 16.2669 36.5803 19.0202 40.1553 20.3246C40.302 20.381 40.4445 20.4285 40.5953 20.4826L40.7942 20.5437C41.002 20.609 41.2116 20.6856 41.4259 20.7331C51.3131 22.6314 53.9897 15.6821 54.7099 14.6603C52.3557 18.0227 48.4084 18.8308 43.5652 17.6593C43.0914 17.5417 42.7013 17.4176 42.3243 17.2757L42.3985 17.3007C41.8279 17.0994 41.3671 16.9076 40.9183 16.6909L41.0038 16.7295C40.0787 16.2782 39.2843 15.7908 38.5462 15.2309C34.2178 11.9587 31.5412 5.72729 34.3668 0.651917L32.848 2.7437Z" fill="#1266A9"/>
</g>
</svg>
