<svg width="60" height="68" viewBox="0 0 60 68" fill="none" xmlns="http://www.w3.org/2000/svg">
<mask id="mask0_25_134" style="mask-type:luminance" maskUnits="userSpaceOnUse" x="46" y="0" width="14" height="14">
<path d="M46.0983 0H59.296V13.2373H46.0983V0Z" fill="white"/>
</mask>
<g mask="url(#mask0_25_134)">
<path d="M46.1139 0L59.2861 13.1615H46.1139V0Z" fill="#FFED9E"/>
</g>
<mask id="mask1_25_134" style="mask-type:luminance" maskUnits="userSpaceOnUse" x="8" y="0" width="52" height="68">
<path d="M8.74365 0H59.296V68H8.74365V0Z" fill="white"/>
</mask>
<g mask="url(#mask1_25_134)">
<path d="M59.2861 13.1615V68H8.79111V0H46.1139V13.1615H59.2861Z" fill="#FDD734"/>
</g>
<path d="M10.987 8.77411V61.4196C10.987 61.5634 10.994 61.7064 11.0082 61.8495C11.0224 61.9926 11.0429 62.1343 11.0712 62.2752C11.0989 62.4162 11.1343 62.555 11.1761 62.6932C11.2179 62.8306 11.266 62.9652 11.3213 63.0983C11.3758 63.2308 11.4375 63.3604 11.5055 63.4872C11.5727 63.614 11.6471 63.7372 11.7265 63.8569C11.8065 63.9759 11.8922 64.0914 11.9836 64.2026C12.075 64.3138 12.1713 64.4201 12.2726 64.5214C12.3746 64.6234 12.4808 64.7197 12.592 64.8104C12.7032 64.9017 12.8187 64.9874 12.9384 65.0668C13.0581 65.1468 13.1807 65.2205 13.3082 65.2885C13.435 65.3565 13.5646 65.4174 13.697 65.4727C13.8302 65.5272 13.9655 65.5761 14.1029 65.6179C14.2403 65.6589 14.3799 65.6944 14.5208 65.722C14.6618 65.7503 14.8042 65.7716 14.9472 65.785C15.0903 65.7992 15.2341 65.8063 15.3779 65.8063H52.7C52.8438 65.8063 52.9876 65.7992 53.1307 65.785C53.2738 65.7716 53.4154 65.7503 53.5564 65.722C53.698 65.6944 53.8369 65.6589 53.975 65.6179C54.1124 65.5761 54.2477 65.5272 54.3802 65.4727C54.5133 65.4174 54.643 65.3565 54.7698 65.2885C54.8965 65.2205 55.0198 65.1468 55.1395 65.0668C55.2592 64.9874 55.3747 64.9017 55.4859 64.8104C55.5971 64.7197 55.7033 64.6234 55.8046 64.5214C55.9066 64.4201 56.003 64.3138 56.0943 64.2026C56.1857 64.0914 56.2707 63.9759 56.3508 63.8569C56.4308 63.7372 56.5045 63.614 56.5725 63.4872C56.6405 63.3604 56.7014 63.2308 56.7566 63.0983C56.8119 62.9652 56.86 62.8306 56.9018 62.6932C56.9436 62.555 56.9783 62.4162 57.0067 62.2752C57.0343 62.1343 57.0555 61.9926 57.0697 61.8495C57.0839 61.7064 57.091 61.5634 57.091 61.4196V59.0906C10.987 56.2523 10.987 8.77411 10.987 8.77411Z" fill="#FFBF00"/>
<mask id="mask2_25_134" style="mask-type:luminance" maskUnits="userSpaceOnUse" x="47" y="13" width="13" height="3">
<path d="M47.1863 13.056H59.296V15.4133H47.1863V13.056Z" fill="white"/>
</mask>
<g mask="url(#mask2_25_134)">
<path d="M47.2119 13.1617H59.2861V15.3547H47.2119V13.1617Z" fill="#FFBF00"/>
</g>
<mask id="mask3_25_134" style="mask-type:luminance" maskUnits="userSpaceOnUse" x="0" y="3" width="40" height="18">
<path d="M0 3.26392H39.5703V20.8533H0V3.26392Z" fill="white"/>
</mask>
<g mask="url(#mask3_25_134)">
<path d="M0.00991821 3.29022H39.5271V20.8385H0.00991821V3.29022Z" fill="#FFBF00"/>
</g>
<path d="M8.79112 20.8385H37.332V24.1294H8.79112V20.8385Z" fill="#E89E00"/>
<path d="M23.0619 17.5483C19.5883 17.5483 18.671 15.3964 18.671 14.2581H19.7689L20.8661 14.2262C20.8795 14.4146 21.0418 15.3546 23.0619 15.3546C23.1335 15.3546 23.205 15.3475 23.2758 15.334C23.3467 15.3199 23.4154 15.2986 23.482 15.2717C23.5485 15.2441 23.6116 15.2101 23.6718 15.1697C23.7313 15.13 23.7873 15.0847 23.8375 15.0337C23.8885 14.9827 23.9346 14.9274 23.9743 14.8672C24.0146 14.8077 24.0479 14.744 24.0755 14.6781C24.1032 14.6115 24.1244 14.5428 24.1386 14.472C24.152 14.4012 24.1591 14.3303 24.1591 14.2581C24.1591 14.1858 24.152 14.115 24.1386 14.0442C24.1244 13.9733 24.1032 13.9046 24.0755 13.838C24.0479 13.7722 24.0146 13.7084 23.9743 13.6489C23.9346 13.5887 23.8885 13.5334 23.8375 13.4824C23.7873 13.4314 23.7313 13.3861 23.6718 13.3464C23.6116 13.3061 23.5485 13.2721 23.482 13.2452C23.4154 13.2175 23.3467 13.1963 23.2758 13.1821C23.205 13.1687 23.1335 13.1616 23.0619 13.1616H21.964C21.8563 13.1616 21.7487 13.1559 21.641 13.1453C21.534 13.1347 21.4271 13.1191 21.3215 13.0978C21.216 13.0773 21.1112 13.0511 21.0078 13.0199C20.905 12.988 20.803 12.9519 20.7039 12.9108C20.604 12.8697 20.507 12.8237 20.4113 12.7727C20.3164 12.7217 20.2243 12.6664 20.1344 12.6069C20.0444 12.5467 19.958 12.483 19.8751 12.4143C19.7915 12.3463 19.7115 12.274 19.6357 12.1975C19.5592 12.1217 19.487 12.0417 19.4183 11.9581C19.3503 11.8752 19.2858 11.7888 19.2256 11.6989C19.1661 11.6096 19.1108 11.5168 19.0598 11.4219C19.0088 11.327 18.9628 11.2299 18.9217 11.1301C18.8799 11.0309 18.8438 10.9289 18.8126 10.8262C18.7815 10.7228 18.7553 10.6187 18.734 10.5131C18.7128 10.4069 18.6972 10.3006 18.6865 10.1937C18.6759 10.086 18.671 9.97903 18.671 9.87065C18.671 9.76299 18.6759 9.65603 18.6865 9.54836C18.6972 9.4414 18.7128 9.33444 18.734 9.2289C18.7553 9.12336 18.7815 9.01924 18.8126 8.91582C18.8438 8.8124 18.8799 8.71111 18.9217 8.61194C18.9628 8.51207 19.0088 8.41503 19.0598 8.32011C19.1108 8.22519 19.1661 8.1324 19.2256 8.04315C19.2858 7.95319 19.3503 7.86678 19.4183 7.7839C19.487 7.70032 19.5592 7.62028 19.6357 7.54449C19.7115 7.46799 19.7915 7.39574 19.8751 7.32774C19.958 7.25903 20.0444 7.19528 20.1344 7.13507C20.2243 7.07557 20.3164 7.02032 20.4113 6.96932C20.507 6.91832 20.604 6.87228 20.7039 6.83119C20.803 6.79011 20.905 6.75399 21.0078 6.72211C21.1112 6.69094 21.216 6.66474 21.3215 6.64419C21.4271 6.62294 21.534 6.60736 21.641 6.59674C21.7487 6.58611 21.8563 6.58044 21.964 6.58044C25.437 6.58044 26.355 8.73236 26.355 9.87065H24.1591C24.1471 9.71411 23.9849 8.77415 21.964 8.77415C21.8918 8.77415 21.8202 8.78124 21.7501 8.7954C21.6793 8.80957 21.6105 8.83011 21.544 8.85774C21.4774 8.88536 21.4143 8.91936 21.3541 8.95903C21.2939 8.9994 21.2387 9.04474 21.1877 9.09574C21.1367 9.14603 21.0913 9.20199 21.051 9.26149C21.0113 9.32169 20.9773 9.38474 20.9497 9.45132C20.922 9.5179 20.9015 9.58661 20.8873 9.65674C20.8732 9.72757 20.8661 9.79911 20.8661 9.87065C20.8661 9.9429 20.8732 10.0144 20.8873 10.0853C20.9015 10.1554 20.922 10.2241 20.9497 10.2907C20.9773 10.3573 21.0113 10.4203 21.051 10.4805C21.0913 10.54 21.1367 10.5953 21.1877 10.6463C21.2387 10.6973 21.2939 10.7426 21.3541 10.783C21.4143 10.8227 21.4774 10.8567 21.544 10.8843C21.6105 10.9119 21.6793 10.9324 21.7501 10.9466C21.8202 10.9608 21.8918 10.9679 21.964 10.9679H23.0619C23.1696 10.9679 23.2773 10.9728 23.3842 10.9834C23.4919 10.9941 23.5981 11.0097 23.7044 11.0309C23.8099 11.0522 23.9148 11.0784 24.0175 11.1095C24.1209 11.1407 24.2222 11.1768 24.322 11.2179C24.4219 11.2597 24.519 11.3057 24.6139 11.356C24.7095 11.407 24.8016 11.4623 24.8915 11.5225C24.9808 11.582 25.0672 11.6464 25.1508 11.7144C25.2344 11.7832 25.3137 11.8554 25.3902 11.9312C25.4667 12.0077 25.539 12.0877 25.6077 12.1706C25.6757 12.2542 25.7401 12.3406 25.7996 12.4299C25.8598 12.5198 25.9151 12.6119 25.9661 12.7068C26.0171 12.8017 26.0631 12.8995 26.1042 12.9987C26.1453 13.0985 26.1814 13.1998 26.2133 13.3032C26.2445 13.4059 26.2707 13.5108 26.2912 13.6163C26.3125 13.7219 26.3288 13.8281 26.3387 13.9358C26.3493 14.0427 26.355 14.1504 26.355 14.2581C26.355 14.3657 26.3493 14.4734 26.3387 14.5804C26.3288 14.688 26.3125 14.7943 26.2919 14.8998C26.2707 15.0054 26.2445 15.1102 26.2133 15.2129C26.1814 15.3163 26.1453 15.4176 26.1042 15.5175C26.0631 15.6167 26.0171 15.7144 25.9661 15.8093C25.9151 15.9042 25.8598 15.9963 25.7996 16.0863C25.7401 16.1755 25.6757 16.2619 25.6077 16.3455C25.539 16.4284 25.4667 16.5084 25.3902 16.5849C25.3137 16.6607 25.2344 16.733 25.1508 16.8017C25.0672 16.8697 24.9808 16.9342 24.8915 16.9937C24.8016 17.0539 24.7095 17.1091 24.6139 17.1601C24.519 17.2104 24.4219 17.2564 24.322 17.2982C24.2222 17.3393 24.1209 17.3754 24.0175 17.4066C23.9148 17.4378 23.8099 17.464 23.7044 17.4852C23.5981 17.5065 23.4919 17.5221 23.3842 17.5327C23.2773 17.5433 23.1696 17.5483 23.0619 17.5483Z" fill="white"/>
<path d="M14.28 17.5483C14.1723 17.5483 14.0647 17.5433 13.957 17.5327C13.85 17.5221 13.7431 17.5065 13.6375 17.4852C13.532 17.464 13.4272 17.4378 13.3237 17.4066C13.221 17.3754 13.119 17.3393 13.0199 17.2982C12.92 17.2564 12.823 17.2104 12.7273 17.1601C12.6324 17.1091 12.5403 17.0539 12.4504 16.9937C12.3604 16.9342 12.274 16.8697 12.1911 16.8017C12.1075 16.733 12.0275 16.6607 11.951 16.5849C11.8752 16.5084 11.803 16.4284 11.7342 16.3455C11.6655 16.2619 11.6018 16.1755 11.5416 16.0863C11.4821 15.9963 11.4268 15.9042 11.3758 15.8093C11.3248 15.7144 11.2788 15.6167 11.2377 15.5175C11.1959 15.4176 11.1598 15.3163 11.1286 15.2129C11.0975 15.1102 11.0712 15.0054 11.05 14.8998C11.0287 14.7943 11.0132 14.688 11.0025 14.5804C10.9919 14.4734 10.987 14.3657 10.987 14.2581V13.1616H13.1821V14.2581C13.1821 14.3303 13.1892 14.4012 13.2033 14.472C13.2175 14.5428 13.238 14.6115 13.2657 14.6781C13.2933 14.744 13.3273 14.8077 13.367 14.8672C13.4073 14.9274 13.4527 14.9827 13.5037 15.0337C13.5547 15.0847 13.6099 15.13 13.6701 15.1697C13.7303 15.2101 13.7934 15.2441 13.86 15.2717C13.9265 15.2986 13.9952 15.3199 14.0661 15.334C14.1362 15.3475 14.2077 15.3546 14.28 15.3546C14.3522 15.3546 14.4231 15.3475 14.4939 15.334C14.5647 15.3199 14.6335 15.2986 14.7 15.2717C14.7666 15.2441 14.8297 15.2101 14.8899 15.1697C14.9501 15.13 15.0053 15.0847 15.0563 15.0337C15.1073 14.9827 15.1527 14.9274 15.1923 14.8672C15.2327 14.8077 15.2667 14.744 15.2943 14.6781C15.322 14.6115 15.3425 14.5428 15.3567 14.472C15.3708 14.4012 15.3779 14.3303 15.3779 14.2581V6.58044H17.573V14.2581C17.573 14.3657 17.5681 14.4734 17.5575 14.5804C17.5468 14.688 17.5305 14.7943 17.51 14.8998C17.4887 15.0054 17.4625 15.1102 17.4314 15.2129C17.4002 15.3163 17.3634 15.4176 17.3223 15.5175C17.2812 15.6167 17.2352 15.7144 17.1842 15.8093C17.1332 15.9042 17.0779 15.9963 17.0184 16.0863C16.9582 16.1755 16.8937 16.2619 16.8257 16.3455C16.757 16.4284 16.6848 16.5084 16.6083 16.5849C16.5325 16.6607 16.4525 16.733 16.3689 16.8017C16.286 16.8697 16.1989 16.9342 16.1096 16.9937C16.0197 17.0539 15.9276 17.1091 15.8327 17.1601C15.737 17.2104 15.64 17.2564 15.5401 17.2982C15.4402 17.3393 15.339 17.3754 15.2355 17.4066C15.1328 17.4378 15.028 17.464 14.9225 17.4852C14.8169 17.5065 14.71 17.5221 14.603 17.5327C14.4953 17.5433 14.3877 17.5483 14.28 17.5483Z" fill="white"/>
<path d="M26.355 55.9357H25.2571C25.0771 55.935 24.8979 55.9265 24.7194 55.9088C24.5402 55.891 24.3631 55.8641 24.1868 55.8287C24.0104 55.794 23.8368 55.7501 23.6647 55.6977C23.4926 55.646 23.324 55.585 23.1576 55.5163C22.9918 55.4476 22.8296 55.3704 22.6709 55.2861C22.513 55.2011 22.3586 55.109 22.2091 55.0092C22.0603 54.9093 21.9158 54.8023 21.777 54.689C21.6382 54.575 21.505 54.4545 21.3782 54.327C21.2507 54.2003 21.1303 54.0678 21.0163 53.929C20.9022 53.7901 20.7953 53.6463 20.6954 53.4969C20.5955 53.3474 20.5034 53.1937 20.4184 53.035C20.3341 52.8771 20.2569 52.7149 20.1882 52.5491C20.1195 52.3834 20.0586 52.2148 20.0062 52.0427C19.9538 51.8713 19.9106 51.697 19.8751 51.5213C19.8397 51.345 19.8135 51.1679 19.7958 50.9887C19.7781 50.8102 19.7689 50.631 19.7689 50.4518V47.1615C19.7214 47.0178 19.4877 46.8839 19.3184 46.7854C18.7942 46.5042 18.3189 46.1564 17.8911 45.7435C17.8408 45.6925 17.7948 45.6365 17.7551 45.577C17.7147 45.5168 17.6814 45.4538 17.6538 45.3872C17.6262 45.3206 17.6049 45.2526 17.5915 45.1818C17.5773 45.1109 17.5702 45.0401 17.5702 44.9678C17.5702 44.8956 17.5773 44.8248 17.5915 44.7539C17.6049 44.6831 17.6262 44.6144 17.6538 44.5478C17.6814 44.4819 17.7147 44.4182 17.7551 44.3587C17.7948 44.2985 17.8408 44.2432 17.8911 44.1922C18.3189 43.7785 18.7942 43.4315 19.3184 43.1503C19.4778 43.0667 19.6279 42.9682 19.7689 42.8556V39.4839C19.7689 39.304 19.7781 39.1255 19.7958 38.9463C19.8135 38.7678 19.8397 38.5907 19.8751 38.4143C19.9106 38.2387 19.9538 38.0644 20.0062 37.893C20.0586 37.7209 20.1195 37.5523 20.1882 37.3865C20.2569 37.2208 20.3341 37.0586 20.4184 36.8999C20.5034 36.742 20.5955 36.5883 20.6954 36.4388C20.7953 36.2893 20.9022 36.1455 21.0163 36.0067C21.1303 35.8679 21.2507 35.7354 21.3782 35.6079C21.505 35.4811 21.6382 35.3607 21.777 35.2467C21.9158 35.1326 22.0603 35.0257 22.2091 34.9265C22.3586 34.8266 22.513 34.7338 22.6709 34.6495C22.8296 34.5645 22.9918 34.488 23.1576 34.4193C23.324 34.3506 23.4926 34.2897 23.6647 34.2373C23.8368 34.1856 24.0104 34.1417 24.1868 34.1063C24.3631 34.0715 24.5402 34.0446 24.7194 34.0269C24.8979 34.0092 25.0771 34 25.2571 34H26.355V36.1937H25.2571C25.1494 36.1937 25.0417 36.1987 24.9341 36.2093C24.8271 36.2199 24.7201 36.2355 24.6146 36.2568C24.5091 36.278 24.4042 36.3042 24.3015 36.3354C24.1981 36.3665 24.0968 36.4027 23.9969 36.4438C23.8971 36.4855 23.8 36.5316 23.7051 36.5819C23.6095 36.6329 23.5174 36.6881 23.4274 36.7483C23.3382 36.8078 23.2511 36.8723 23.1682 36.9403C23.0846 37.009 23.0046 37.0813 22.9288 37.157C22.8523 37.2335 22.78 37.3129 22.7113 37.3965C22.6433 37.48 22.5788 37.5665 22.5186 37.6557C22.4591 37.7457 22.4039 37.8378 22.3529 37.9327C22.3019 38.0276 22.2558 38.1253 22.2148 38.2245C22.1737 38.3244 22.1368 38.4257 22.1057 38.5291C22.0745 38.6318 22.0483 38.7359 22.0271 38.8422C22.0065 38.9477 21.9902 39.054 21.9796 39.1616C21.969 39.2686 21.964 39.3763 21.964 39.4839V42.7741C21.9647 43.005 21.9328 43.2317 21.8684 43.4534C21.8032 43.6751 21.709 43.8834 21.5843 44.0782C21.4597 44.2723 21.3095 44.4451 21.1353 44.5967C20.9603 44.7483 20.7683 44.8715 20.558 44.9678C20.7683 45.0635 20.9603 45.1874 21.1353 45.339C21.3095 45.4899 21.4597 45.6634 21.5843 45.8575C21.709 46.0523 21.8032 46.2605 21.8684 46.4823C21.9328 46.704 21.9647 46.9306 21.964 47.1615V50.4518C21.964 50.5594 21.969 50.6671 21.9796 50.774C21.9902 50.8817 22.0065 50.988 22.0271 51.0935C22.0483 51.199 22.0745 51.3039 22.1057 51.4066C22.1368 51.51 22.1737 51.6113 22.2148 51.7105C22.2558 51.8103 22.3019 51.9074 22.3529 52.003C22.4039 52.0979 22.4591 52.19 22.5186 52.28C22.5788 52.3692 22.6433 52.4556 22.7113 52.5392C22.78 52.6221 22.8523 52.7021 22.9288 52.7779C23.0046 52.8544 23.0846 52.9267 23.1682 52.9954C23.2511 53.0634 23.3382 53.1278 23.4274 53.1873C23.5174 53.2475 23.6095 53.3028 23.7051 53.3531C23.8 53.4041 23.8971 53.4501 23.9969 53.4912C24.0968 53.533 24.1981 53.5691 24.3015 53.6003C24.4042 53.6315 24.5091 53.6577 24.6146 53.6789C24.7201 53.6995 24.8271 53.7158 24.9341 53.7264C25.0417 53.737 25.1494 53.742 25.2571 53.742H26.355V55.9357Z" fill="white"/>
<path d="M42.8209 55.9357H41.723V53.742H42.8209C42.9285 53.742 43.0362 53.737 43.1432 53.7264C43.2508 53.7158 43.3571 53.6995 43.4633 53.6789C43.5689 53.6577 43.6737 53.6315 43.7764 53.6003C43.8798 53.5691 43.9811 53.533 44.081 53.4912C44.1802 53.4501 44.2779 53.4041 44.3728 53.3531C44.4685 53.3028 44.5605 53.2475 44.6505 53.1873C44.7398 53.1278 44.8262 53.0634 44.9098 52.9954C44.9933 52.9267 45.0727 52.8544 45.1492 52.7779C45.2257 52.7021 45.2979 52.6221 45.3659 52.5392C45.4346 52.4556 45.4991 52.3692 45.5586 52.28C45.6188 52.19 45.674 52.0979 45.725 52.003C45.776 51.9074 45.8221 51.8103 45.8632 51.7105C45.9043 51.6113 45.9404 51.51 45.9723 51.4066C46.0034 51.3039 46.0296 51.199 46.0502 51.0935C46.0714 50.988 46.087 50.8817 46.0976 50.774C46.1083 50.6671 46.1139 50.5594 46.1139 50.4518V47.1615C46.1132 46.9306 46.1451 46.704 46.2095 46.4823C46.274 46.2605 46.3689 46.0523 46.4936 45.8575C46.6183 45.6634 46.7677 45.4899 46.9427 45.339C47.1169 45.1874 47.3096 45.0635 47.52 44.9678C47.3096 44.8715 47.1169 44.7483 46.9427 44.5967C46.7677 44.4451 46.6183 44.2723 46.4936 44.0782C46.3689 43.8834 46.274 43.6751 46.2095 43.4534C46.1451 43.2317 46.1132 43.005 46.1139 42.7741V39.4839C46.1139 39.3763 46.1083 39.2686 46.0976 39.1616C46.087 39.054 46.0714 38.9477 46.0502 38.8422C46.0296 38.7359 46.0034 38.6318 45.9723 38.5291C45.9404 38.4257 45.9043 38.3244 45.8632 38.2245C45.8221 38.1253 45.776 38.0276 45.725 37.9327C45.674 37.8378 45.6188 37.7457 45.5586 37.6557C45.4991 37.5665 45.4346 37.48 45.3659 37.3965C45.2979 37.3129 45.2257 37.2335 45.1492 37.157C45.0727 37.0813 44.9933 37.009 44.9098 36.9403C44.8262 36.8723 44.7398 36.8078 44.6505 36.7483C44.5605 36.6881 44.4685 36.6329 44.3728 36.5819C44.2779 36.5316 44.1802 36.4855 44.081 36.4438C43.9811 36.4027 43.8798 36.3665 43.7764 36.3354C43.6737 36.3042 43.5689 36.278 43.4633 36.2568C43.3571 36.2355 43.2508 36.2199 43.1432 36.2093C43.0362 36.1987 42.9285 36.1937 42.8209 36.1937H41.723V34H42.8209C43.0001 34 43.1793 34.0092 43.3585 34.0269C43.537 34.0446 43.7148 34.0715 43.8912 34.1063C44.0668 34.1417 44.2411 34.1856 44.4132 34.2373C44.5853 34.2897 44.7539 34.3506 44.9197 34.4193C45.0861 34.488 45.2483 34.5645 45.4063 34.6495C45.565 34.7338 45.7187 34.8266 45.8681 34.9265C46.0176 35.0257 46.1621 35.1326 46.3009 35.2467C46.4398 35.3607 46.5729 35.4811 46.6997 35.6079C46.8265 35.7354 46.9476 35.8679 47.0617 36.0067C47.1757 36.1455 47.2827 36.2893 47.3825 36.4388C47.4824 36.5883 47.5745 36.742 47.6595 36.8999C47.7438 37.0586 47.821 37.2208 47.8897 37.3865C47.9584 37.5523 48.0193 37.7209 48.071 37.893C48.1235 38.0644 48.1674 38.2387 48.2028 38.4143C48.2382 38.5907 48.2644 38.7678 48.2821 38.9463C48.2998 39.1255 48.309 39.304 48.309 39.4839V42.7741C48.3565 42.9179 48.5903 43.0518 48.7595 43.1503C49.2837 43.4315 49.759 43.7785 50.1861 44.1922C50.2371 44.2432 50.2825 44.2985 50.3228 44.3587C50.3625 44.4182 50.3965 44.4819 50.4241 44.5478C50.4518 44.6144 50.4723 44.6831 50.4865 44.7539C50.5006 44.8248 50.5077 44.8956 50.5077 44.9678C50.5077 45.0401 50.5006 45.1109 50.4865 45.1818C50.4723 45.2526 50.4518 45.3206 50.4241 45.3872C50.3965 45.4538 50.3625 45.5168 50.3228 45.577C50.2825 45.6365 50.2371 45.6925 50.1861 45.7435C49.759 46.1564 49.2837 46.5042 48.7595 46.7854C48.5988 46.8683 48.4472 46.9668 48.3062 47.0801L48.309 50.4518C48.309 50.631 48.2998 50.8102 48.2821 50.9887C48.2644 51.1679 48.2382 51.345 48.2028 51.5213C48.1674 51.697 48.1235 51.8713 48.071 52.0427C48.0193 52.2148 47.9584 52.3834 47.8897 52.5491C47.821 52.7149 47.7438 52.8771 47.6595 53.035C47.5745 53.1937 47.4824 53.3474 47.3825 53.4969C47.2827 53.6463 47.1757 53.7901 47.0617 53.929C46.9476 54.0678 46.8265 54.2003 46.6997 54.327C46.5729 54.4545 46.4398 54.575 46.3009 54.689C46.1621 54.8023 46.0176 54.9093 45.8681 55.0092C45.7187 55.109 45.565 55.2011 45.4063 55.2861C45.2483 55.3704 45.0861 55.4476 44.9197 55.5163C44.7539 55.585 44.5853 55.646 44.4132 55.6977C44.2411 55.7501 44.0668 55.794 43.8912 55.8287C43.7148 55.8641 43.537 55.891 43.3585 55.9088C43.1793 55.9265 43.0001 55.935 42.8209 55.9357Z" fill="white"/>
<path d="M36.2341 39.4839C36.2341 39.6277 36.2199 39.7708 36.1923 39.9118C36.164 40.0534 36.1222 40.1901 36.0669 40.3233C36.0117 40.4565 35.9444 40.5826 35.8643 40.7023C35.7843 40.822 35.6929 40.9332 35.5916 41.0352C35.4896 41.1365 35.3784 41.2278 35.2587 41.3079C35.139 41.3879 35.0122 41.4552 34.879 41.5105C34.7459 41.5657 34.6085 41.6075 34.4675 41.6351C34.3258 41.6635 34.1827 41.6776 34.039 41.6776C33.8945 41.6776 33.7521 41.6635 33.6104 41.6351C33.4695 41.6075 33.332 41.5657 33.1989 41.5105C33.0657 41.4552 32.9389 41.3879 32.8192 41.3079C32.6995 41.2278 32.5883 41.1365 32.4863 41.0352C32.3843 40.9332 32.2936 40.822 32.2136 40.7023C32.1335 40.5826 32.0655 40.4565 32.0103 40.3233C31.955 40.1901 31.914 40.0534 31.8856 39.9118C31.8573 39.7708 31.8431 39.6277 31.8431 39.4839C31.8431 39.3401 31.8573 39.1971 31.8856 39.0561C31.914 38.9144 31.955 38.7777 32.0103 38.6446C32.0655 38.5114 32.1335 38.3853 32.2136 38.2649C32.2936 38.1452 32.3843 38.0347 32.4863 37.9327C32.5883 37.8307 32.6995 37.74 32.8192 37.66C32.9389 37.5799 33.0657 37.5126 33.1989 37.4574C33.332 37.4021 33.4695 37.3603 33.6104 37.3327C33.7521 37.3044 33.8945 37.2902 34.039 37.2902C34.1827 37.2902 34.3258 37.3044 34.4675 37.3327C34.6085 37.3603 34.7459 37.4021 34.879 37.4574C35.0122 37.5126 35.139 37.5799 35.2587 37.66C35.3784 37.74 35.4896 37.8307 35.5916 37.9327C35.6929 38.0347 35.7843 38.1452 35.8643 38.2649C35.9444 38.3853 36.0117 38.5114 36.0669 38.6446C36.1222 38.7777 36.164 38.9144 36.1923 39.0561C36.2199 39.1971 36.2341 39.3401 36.2341 39.4839Z" fill="white"/>
<path d="M31.8431 43.8707H35.1369L31.8431 51.5483H29.648L31.8431 43.8707Z" fill="white"/>
<path d="M24.7739 17.0658C24.6266 17.306 24.4517 17.5241 24.2484 17.7203C24.0451 17.9158 23.8205 18.083 23.5747 18.2211C23.3289 18.3592 23.0697 18.4641 22.7963 18.5363C22.5236 18.6079 22.2459 18.644 21.964 18.6454C18.4953 18.6454 17.573 16.4956 17.573 15.3545H18.9125C19.3623 16.4078 20.5367 17.5482 23.0619 17.5482C23.6782 17.5489 24.2491 17.3874 24.7739 17.0658Z" fill="#E89E00"/>
<path d="M24.1591 14.258C24.1591 14.3303 24.1521 14.4011 24.1386 14.4719C24.1244 14.5428 24.1032 14.6115 24.0756 14.6781C24.0479 14.7439 24.0146 14.8077 23.9743 14.8672C23.9346 14.9274 23.8886 14.9826 23.8376 15.0336C23.7873 15.0846 23.7313 15.13 23.6718 15.1696C23.6116 15.21 23.5486 15.244 23.482 15.2716C23.4154 15.2986 23.3467 15.3198 23.2758 15.334C23.205 15.3474 23.1335 15.3545 23.0619 15.3545C23.0619 15.283 23.0548 15.2114 23.0407 15.1406C23.0265 15.0705 23.006 15.0018 22.9783 14.9352C22.9507 14.8686 22.9167 14.8056 22.8771 14.7453C22.8367 14.6858 22.7913 14.6299 22.7403 14.5796C22.6893 14.5286 22.6341 14.4826 22.5739 14.4429C22.5137 14.4025 22.4506 14.3692 22.3841 14.3416C22.3175 14.314 22.2488 14.2934 22.1779 14.2793C22.1071 14.2651 22.0363 14.258 21.964 14.258H20.8661V14.2254L20.5367 14.2361H20.5261C20.3561 14.2176 20.1889 14.1865 20.0239 14.1426C19.8588 14.0986 19.6981 14.042 19.5422 13.9726C19.3857 13.9038 19.2362 13.8224 19.0924 13.7303C18.9486 13.6375 18.8133 13.5348 18.6858 13.4215C18.5583 13.3081 18.4401 13.1849 18.3317 13.0531C18.2233 12.9214 18.1256 12.7818 18.0391 12.6352C17.952 12.4879 17.8776 12.3349 17.8146 12.1762C17.7516 12.0176 17.7013 11.8553 17.6637 11.6889C17.6262 11.5224 17.6014 11.3538 17.5901 11.1831C17.5787 11.0131 17.5808 10.8431 17.5957 10.6731C17.6113 10.5031 17.6389 10.3353 17.6807 10.1695C17.7218 10.0038 17.7756 9.84227 17.8422 9.68501C17.9081 9.52847 17.9867 9.37689 18.0767 9.23168C18.1666 9.08647 18.2672 8.94976 18.3784 8.82014C18.4896 8.69051 18.6101 8.57081 18.7404 8.4596C18.8707 8.3491 19.0081 8.24922 19.1541 8.15997C19.0018 8.40931 18.8856 8.67422 18.8041 8.95472C18.7227 9.23522 18.6795 9.52068 18.6738 9.81322C18.6688 10.1051 18.7021 10.3919 18.7737 10.6753C18.8452 10.9586 18.9522 11.2271 19.0953 11.4813C19.2383 11.7363 19.4119 11.968 19.6166 12.1762C19.8213 12.3845 20.0501 12.5623 20.3016 12.7096C20.5537 12.8576 20.8208 12.9696 21.1027 13.0461C21.3846 13.1226 21.6715 13.1608 21.964 13.1615H23.0619C23.1335 13.1615 23.205 13.1686 23.2758 13.1821C23.3467 13.1962 23.4154 13.2175 23.482 13.2451C23.5486 13.272 23.6116 13.306 23.6718 13.3464C23.7313 13.3861 23.7873 13.4314 23.8376 13.4824C23.8886 13.5334 23.9346 13.5886 23.9743 13.6488C24.0146 13.7083 24.0479 13.7721 24.0756 13.838C24.1032 13.9046 24.1244 13.9733 24.1386 14.0441C24.1521 14.1149 24.1591 14.1858 24.1591 14.258Z" fill="#E89E00"/>
<path d="M25.257 10.9678H23.0619C23.0506 10.8141 22.8862 9.87061 20.8661 9.87061C20.8661 9.79907 20.8732 9.72753 20.8873 9.65669C20.9015 9.58657 20.922 9.51786 20.9497 9.45128C20.9773 9.38469 21.0113 9.32165 21.0509 9.26144C21.0913 9.20194 21.1367 9.14598 21.1877 9.09569C21.2387 9.04469 21.2939 8.99936 21.3541 8.95898C21.4143 8.91932 21.4774 8.88532 21.5439 8.85769C21.6105 8.83007 21.6792 8.80953 21.7501 8.79536C21.8202 8.78119 21.8917 8.77411 21.964 8.77411C23.9834 8.77411 24.1485 9.71761 24.1591 9.87061H25.0155C25.172 10.2198 25.2528 10.5853 25.257 10.9678Z" fill="#E89E00"/>
<path d="M15.3779 7.67767V14.2581C15.3779 14.3303 15.3708 14.4012 15.3567 14.472C15.3425 14.5428 15.322 14.6115 15.2943 14.6781C15.2667 14.744 15.2327 14.8078 15.1923 14.8673C15.1527 14.9275 15.1073 14.9827 15.0563 15.0337C15.0053 15.0847 14.9501 15.13 14.8899 15.1697C14.8297 15.2101 14.7666 15.2441 14.7001 15.2717C14.6335 15.2986 14.5648 15.3199 14.4939 15.334C14.4231 15.3475 14.3523 15.3546 14.28 15.3546V7.67767H15.3779Z" fill="#E89E00"/>
<path d="M15.9921 17.0659C15.8993 17.2175 15.7951 17.3613 15.679 17.4958C15.5628 17.6311 15.436 17.7558 15.2993 17.8706C15.1633 17.9846 15.0181 18.0873 14.8651 18.1787C14.7121 18.2693 14.5527 18.348 14.3863 18.4124C14.2205 18.4776 14.0505 18.5293 13.8763 18.5668C13.702 18.6044 13.5263 18.6278 13.3486 18.6363C13.1701 18.6455 12.993 18.6398 12.8159 18.62C12.6388 18.6001 12.4638 18.5661 12.2924 18.5187C12.121 18.4705 11.9546 18.4089 11.7931 18.3338C11.6316 18.2587 11.4771 18.1709 11.3298 18.0703C11.1825 17.9704 11.0436 17.8592 10.9147 17.7367C10.7858 17.6141 10.6668 17.4817 10.5591 17.34C10.4515 17.1983 10.3558 17.0482 10.2723 16.8909C10.1887 16.7337 10.1186 16.5708 10.0619 16.4022C10.0052 16.2336 9.96201 16.0615 9.93297 15.8858C9.90393 15.7094 9.88905 15.5331 9.88905 15.3546V14.2581H10.987C10.987 14.5499 11.0252 14.8368 11.1024 15.1187C11.1789 15.3999 11.2908 15.6669 11.4389 15.9191C11.5862 16.1706 11.7647 16.3986 11.973 16.6033C12.1812 16.8081 12.4128 16.9816 12.6678 17.1247C12.9228 17.2671 13.1913 17.3747 13.4746 17.4456C13.758 17.5171 14.0463 17.5504 14.3381 17.5454C14.6299 17.5398 14.9168 17.4966 15.1973 17.4158C15.4778 17.3343 15.7427 17.2175 15.9921 17.0659Z" fill="#E89E00"/>
<path d="M46.1139 54.8384C45.8582 55.1791 45.5664 55.4851 45.2391 55.7579C44.9119 56.0306 44.5577 56.2615 44.1766 56.452C43.7962 56.6426 43.3982 56.7864 42.9838 56.8848C42.5694 56.9826 42.1487 57.0321 41.7229 57.0321H40.625V54.8384H41.7229V55.9356H42.8209C43.4144 55.9378 43.9939 55.845 44.5577 55.6573C45.1208 55.4696 45.64 55.1969 46.1139 54.8384Z" fill="#E89E00"/>
<path d="M46.3441 46.1083C46.1826 46.4412 46.1061 46.7918 46.1139 47.1616V50.4518C46.1132 50.7337 46.0764 51.0107 46.0048 51.2834C45.9326 51.5561 45.8278 51.8153 45.6889 52.0611C45.5508 52.3069 45.3836 52.5314 45.1881 52.734C44.9919 52.9373 44.7738 53.1123 44.5329 53.2596C44.8552 52.7347 45.016 52.1645 45.016 51.5483V48.2581C45.0139 48.0342 45.0429 47.8154 45.1031 47.6C45.1626 47.3847 45.2519 47.1814 45.3695 46.9916C45.4871 46.801 45.6287 46.631 45.7945 46.4809C45.9602 46.3307 46.1437 46.2067 46.3441 46.1083Z" fill="#E89E00"/>
<path d="M49.3411 46.4263C49.2929 46.5871 49.2086 46.726 49.0889 46.8435C48.8481 47.0822 48.5881 47.2983 48.309 47.4902V47.0844C48.4479 46.9689 48.598 46.8705 48.7595 46.7883C48.9607 46.6799 49.1548 46.5595 49.3411 46.4263Z" fill="#E89E00"/>
<path d="M47.5185 44.9678C47.0362 45.2172 46.6551 45.5756 46.3774 46.0424C46.1727 45.9446 45.9857 45.82 45.8164 45.6684C45.6478 45.5175 45.5026 45.3454 45.3822 45.1534C45.2618 44.9615 45.1704 44.756 45.1081 44.5379C45.0457 44.3204 45.0153 44.098 45.016 43.8706V40.5804C45.016 40.4727 45.0103 40.3658 44.999 40.2581C44.9884 40.1512 44.9721 40.0449 44.9508 39.9394C44.9296 39.8338 44.9034 39.7297 44.8722 39.6263C44.8403 39.5236 44.8042 39.4223 44.7624 39.3231C44.7213 39.224 44.6753 39.1262 44.6243 39.0313C44.5733 38.9364 44.518 38.8443 44.4578 38.755C44.3983 38.6658 44.3339 38.5794 44.2659 38.4958C44.1972 38.4129 44.1249 38.3329 44.0484 38.2571C43.9726 38.1806 43.8926 38.1083 43.8097 38.0403C43.7261 37.9716 43.6397 37.9079 43.5504 37.8477C43.4605 37.7882 43.3684 37.7329 43.2735 37.6819C43.1786 37.6309 43.0808 37.5849 42.9817 37.5431C42.8818 37.502 42.7805 37.4659 42.6778 37.434C42.5744 37.4028 42.4702 37.3766 42.3647 37.3554C42.2592 37.3341 42.1529 37.3178 42.0452 37.3072C41.9383 37.2959 41.8306 37.2909 41.7229 37.2902H40.625V35.0965H41.7229V36.1937H42.8209C42.9285 36.1937 43.0362 36.1994 43.1432 36.21C43.2501 36.2213 43.3571 36.2369 43.4626 36.2582C43.5682 36.2794 43.6723 36.3063 43.7757 36.3375C43.8784 36.3687 43.9797 36.4055 44.0796 36.4466C44.1787 36.4877 44.2758 36.5344 44.3707 36.5847C44.4663 36.6357 44.5584 36.691 44.6477 36.7512C44.7376 36.8107 44.824 36.8751 44.9069 36.9431C44.9905 37.0118 45.0698 37.0841 45.1463 37.1599C45.2228 37.2364 45.2951 37.3157 45.3631 37.3993C45.4318 37.4822 45.4955 37.5686 45.5557 37.6578C45.6159 37.7478 45.6712 37.8399 45.7222 37.9348C45.7732 38.0297 45.8192 38.1267 45.8603 38.2259C45.9021 38.3258 45.9382 38.4271 45.9694 38.5298C46.0013 38.6325 46.0275 38.7373 46.0487 38.8429C46.07 38.9484 46.0863 39.0547 46.0969 39.1616C46.1075 39.2686 46.1132 39.3762 46.1139 39.4839V42.7741C46.1132 43.005 46.1451 43.2317 46.2095 43.4527C46.2747 43.6744 46.3689 43.8827 46.4936 44.0775C46.6182 44.2715 46.7677 44.4451 46.9419 44.596C47.1162 44.7475 47.3089 44.8715 47.5185 44.9678Z" fill="#E89E00"/>
<path d="M25.257 55.9357V57.0322H24.1591C23.9799 57.0322 23.8 57.0237 23.6215 57.006C23.4423 56.9883 23.2652 56.9621 23.0888 56.9266C22.9125 56.8919 22.7382 56.848 22.5661 56.7963C22.394 56.7439 22.2254 56.6837 22.0589 56.615C21.8932 56.5463 21.731 56.4691 21.5723 56.3848C21.4136 56.2998 21.2599 56.2077 21.1105 56.1078C20.9603 56.0079 20.8165 55.9017 20.6777 55.7876C20.5388 55.6736 20.4057 55.5532 20.2782 55.4264C20.1514 55.2989 20.031 55.1664 19.9169 55.0276C19.8029 54.8888 19.6959 54.7443 19.596 54.5948C19.4962 54.4461 19.4034 54.2916 19.3191 54.1337C19.2341 53.975 19.1576 53.8128 19.0889 53.6471C19.0202 53.4813 18.9593 53.312 18.9068 53.1406C18.8551 52.9685 18.8112 52.7942 18.7765 52.6186C18.7411 52.4422 18.7149 52.2644 18.6972 52.0859C18.6795 51.9074 18.671 51.7282 18.671 51.5483V48.2581C18.627 48.1157 18.3855 47.9839 18.2205 47.8855C17.6984 47.6014 17.2224 47.2544 16.7939 46.8435C16.7429 46.7918 16.6975 46.7366 16.6572 46.6764C16.6175 46.6161 16.5835 46.5524 16.5559 46.4858C16.5283 46.4185 16.5077 46.3498 16.4935 46.279C16.4794 46.2081 16.473 46.1366 16.473 46.0644C16.473 45.9921 16.4794 45.9206 16.4935 45.8497C16.5077 45.7789 16.5283 45.7102 16.5559 45.6436C16.5835 45.5763 16.6175 45.5133 16.6572 45.4531C16.6975 45.3929 16.7429 45.3369 16.7939 45.2859C17.0553 45.0337 17.3365 44.8071 17.6389 44.6059C17.6035 44.7029 17.5823 44.8035 17.5752 44.9062C17.5681 45.0096 17.5759 45.1116 17.5978 45.2129C17.6205 45.3142 17.6566 45.4099 17.7062 45.5005C17.7565 45.5912 17.8181 45.6734 17.8911 45.7463C18.3203 46.1579 18.7963 46.5049 19.3184 46.7883C19.4834 46.8874 19.725 47.0185 19.7689 47.1616V50.4518C19.7689 50.631 19.7774 50.8102 19.7951 50.9894C19.8128 51.1679 19.839 51.345 19.8737 51.5214C19.9091 51.6977 19.953 51.872 20.0048 52.0434C20.0572 52.2155 20.1174 52.3841 20.1861 52.5499C20.2548 52.7163 20.332 52.8785 20.4163 53.0365C20.5013 53.1951 20.5934 53.3489 20.6933 53.4983C20.7931 53.6478 20.9001 53.7916 21.0141 53.9304C21.1282 54.0692 21.2493 54.2024 21.3761 54.3292C21.5029 54.456 21.636 54.5771 21.7749 54.6904C21.9144 54.8045 22.0582 54.9114 22.2077 55.0113C22.3571 55.1112 22.5115 55.2033 22.6695 55.2883C22.8282 55.3726 22.9904 55.4491 23.1568 55.5178C23.3226 55.5865 23.4919 55.6474 23.664 55.6991C23.8361 55.7515 24.0104 55.7954 24.186 55.8301C24.3624 55.8649 24.5402 55.8918 24.7194 55.9088C24.8979 55.9265 25.0771 55.9357 25.257 55.9357Z" fill="#E89E00"/>
<path d="M20.8661 36.1937C20.5077 36.6669 20.235 37.1854 20.0465 37.7485C19.8588 38.3116 19.766 38.8904 19.7689 39.4839V42.8506C19.6293 42.9661 19.4799 43.0653 19.3184 43.1474C19.1321 43.2565 18.9125 43.3883 18.671 43.542V40.5804C18.671 40.1547 18.7205 39.7354 18.8183 39.321C18.9168 38.9066 19.0613 38.5093 19.2511 38.1289C19.4416 37.7478 19.6733 37.3944 19.9467 37.0671C20.2194 36.7406 20.5261 36.4494 20.8661 36.1937Z" fill="#E89E00"/>
<path d="M25.257 36.1937V37.2902H24.1591C23.5429 37.2902 22.972 37.451 22.4471 37.7726C22.5944 37.5325 22.7694 37.3143 22.9727 37.1188C23.176 36.9233 23.4005 36.7561 23.6463 36.618C23.8921 36.4799 24.1513 36.3744 24.4247 36.3028C24.6975 36.2306 24.9751 36.1944 25.257 36.1937Z" fill="#E89E00"/>
<path d="M34.9392 41.48C34.9031 41.5607 34.862 41.6393 34.8167 41.7158C34.7707 41.7916 34.7211 41.8646 34.6665 41.9347C34.612 42.0048 34.5539 42.0714 34.4909 42.1345C34.4285 42.1968 34.3627 42.2563 34.2925 42.3108C34.2231 42.3661 34.1502 42.4164 34.0744 42.4624C33.9986 42.5085 33.9207 42.5502 33.8399 42.5864C33.7592 42.6232 33.6763 42.6551 33.5913 42.6813C33.507 42.7082 33.4206 42.7295 33.3335 42.7457C33.2463 42.762 33.1585 42.7727 33.07 42.7783C32.9814 42.784 32.8929 42.784 32.8043 42.7783C32.7158 42.7734 32.6272 42.7627 32.5401 42.7472C32.453 42.7309 32.3666 42.7103 32.2823 42.6841C32.1973 42.6579 32.1144 42.626 32.0337 42.5899C31.9529 42.5538 31.8743 42.5127 31.7985 42.4667C31.722 42.4206 31.649 42.3703 31.5796 42.3158C31.5095 42.2612 31.4429 42.2025 31.3806 42.1401C31.3175 42.0771 31.2587 42.0112 31.2042 41.9411C31.1497 41.8717 31.0994 41.7987 31.0533 41.7229C31.0073 41.6464 30.9662 41.5685 30.9301 41.4877C30.894 41.4063 30.8621 41.3234 30.8359 41.2391C30.8097 41.1541 30.7884 41.0684 30.7728 40.9813C30.7572 40.8942 30.7466 40.8063 30.741 40.7178C30.736 40.6292 30.736 40.5407 30.7417 40.4522C30.7473 40.3636 30.758 40.2758 30.7742 40.1887C30.7905 40.1015 30.8118 40.0151 30.8387 39.9308C30.8649 39.8465 30.8968 39.7637 30.9336 39.6829C30.9697 39.6022 31.0115 39.5242 31.0576 39.4485C31.1036 39.3727 31.1546 39.2997 31.2092 39.2303C31.2644 39.1609 31.3232 39.0943 31.3862 39.032C31.4493 38.9696 31.5159 38.9108 31.586 38.857C31.6561 38.8025 31.7291 38.7522 31.8049 38.7068C31.8814 38.6615 31.96 38.6204 32.0407 38.5843C31.9069 38.869 31.841 39.1694 31.8431 39.4839C31.8438 39.6277 31.858 39.77 31.887 39.911C31.9154 40.0527 31.9572 40.1894 32.0124 40.3225C32.0677 40.455 32.1357 40.5811 32.2157 40.7008C32.2957 40.8205 32.3864 40.931 32.4884 41.033C32.5904 41.135 32.7009 41.2257 32.8206 41.3057C32.9403 41.3857 33.0664 41.453 33.1996 41.509C33.3327 41.5642 33.4702 41.606 33.6111 41.6344C33.7521 41.6627 33.8952 41.6769 34.039 41.6776C34.3542 41.6797 34.6538 41.6138 34.9392 41.48Z" fill="#E89E00"/>
<path d="M29.648 51.5483H31.2177L30.7459 52.6455H28.5501L30.7459 44.9678H31.5251L29.648 51.5483Z" fill="#E89E00"/>
</svg>
