<svg width="102" height="53" viewBox="0 0 102 53" fill="none" xmlns="http://www.w3.org/2000/svg">
<mask id="mask0_28_256" style="mask-type:luminance" maskUnits="userSpaceOnUse" x="0" y="31" width="43" height="22">
<path d="M0 31.5989H42.2129V52.1003H0V31.5989Z" fill="white"/>
</mask>
<g mask="url(#mask0_28_256)">
<path d="M0.119415 47.4831H3.47529V34.3548L8.67116 45.8043C9.28411 47.1845 10.1245 47.6803 11.77 47.6803C13.4156 47.6803 14.2218 47.1902 14.8359 45.8043L20.0318 34.3548V47.4888H23.3888V34.3762C23.3888 33.0974 22.8714 32.4788 21.807 32.16C19.2574 31.3713 17.547 32.0529 16.7726 33.7588L11.6745 45.0573L6.73564 33.7531C5.99305 32.0484 4.25086 31.3657 1.70126 32.1543C0.635704 32.4743 0.119415 33.0929 0.119415 34.3717V47.4831ZM26.1783 36.7941H29.5342V44.0298C29.5024 44.423 29.6616 45.3458 31.5004 45.3739C32.4386 45.3886 38.7399 45.3739 38.799 45.3739V36.758H42.1617C42.1765 36.758 42.1583 48.5062 42.1583 48.5569C42.1765 51.4536 38.5306 52.0834 36.8498 52.1319H26.2523V49.8943H36.868C39.0287 49.6667 38.774 48.6042 38.774 48.2459V47.3727H31.6403C28.3208 47.3434 26.2079 45.908 26.1818 44.2562C26.1795 44.1086 26.2534 36.8651 26.1795 36.7941H26.1783Z" fill="#00618A"/>
</g>
<path d="M44.7488 47.4831H54.398C55.5272 47.4831 56.6257 47.2499 57.498 46.8443C58.9502 46.1829 59.6598 45.2872 59.6598 44.1154V41.6851C59.6598 40.7252 58.8535 39.8294 57.2717 39.2334C56.4324 38.9123 55.3998 38.7422 54.4002 38.7422H50.3336C48.9781 38.7422 48.3321 38.3377 48.1707 37.4419C48.1388 37.336 48.1388 37.2448 48.1388 37.1434V35.6302C48.1388 35.5446 48.1388 35.4589 48.1707 35.353C48.3321 34.6703 48.6881 34.4787 49.881 34.3672C49.9788 34.3672 50.1073 34.3446 50.2051 34.3446H59.7894V32.1284H50.3654C49.0099 32.1284 48.3003 32.214 47.6544 32.4056C45.6506 33.0241 44.7795 34.01 44.7795 35.7158V37.656C44.7795 39.1478 46.491 40.4277 49.3624 40.7252C49.6854 40.7466 50.0072 40.768 50.3302 40.768H53.8157C53.9454 40.768 54.075 40.768 54.1705 40.7894C55.2349 40.875 55.6887 41.0665 56.0105 41.4496C56.2095 41.6468 56.2687 41.835 56.2687 42.0411V43.9813C56.2687 44.2168 56.1083 44.5154 55.7853 44.77C55.4942 45.0269 55.0109 45.197 54.365 45.2398C54.2353 45.2398 54.1387 45.2613 54.0102 45.2613H44.7477V47.4786L44.7488 47.4831ZM80.5968 43.6253C80.5968 45.9057 82.3071 47.1857 85.7608 47.4414C86.0826 47.4662 86.4056 47.4797 86.7285 47.4831H95.4748V45.2669H86.6637C84.6952 45.2669 83.9526 44.7756 83.9526 43.6027V32.1329H80.5968V43.6253ZM61.8011 43.7402V35.8364C61.8011 33.8286 63.2238 32.6106 66.0372 32.2253C66.3374 32.1836 66.6399 32.1622 66.9435 32.1611H73.3141C73.628 32.1622 73.9407 32.1836 74.2523 32.2253C77.0658 32.6106 78.4884 33.8275 78.4884 35.8364V43.7402C78.4884 45.3694 77.8845 46.2415 76.4915 46.8093L79.7973 49.7669H75.9001L73.2254 47.3749L70.5325 47.544H66.9435C66.3283 47.544 65.6824 47.4583 64.9705 47.2657C62.8314 46.6888 61.8011 45.5779 61.8011 43.7402ZM65.4242 43.543C65.4242 43.6501 65.4561 43.756 65.4879 43.8856C65.6869 44.8038 66.5558 45.3165 67.876 45.3165H70.926L68.1251 42.8107H72.0223L74.4593 44.9965C74.9096 44.7587 75.2053 44.3948 75.3054 43.9284C75.3372 43.8213 75.3372 43.7143 75.3372 43.6073V36.0291C75.3372 35.9434 75.3372 35.8319 75.3054 35.7294C75.1064 34.8753 74.2375 34.3841 72.9445 34.3841H67.8851C66.3931 34.3841 65.4277 35.0252 65.4277 36.0291V43.5487L65.4242 43.543Z" fill="#E48E00"/>
<path d="M98.4258 28.4543C96.3629 28.3991 94.7867 28.5895 93.4391 29.1528C93.0559 29.3128 92.4464 29.3162 92.3827 29.7917C92.5931 30.0102 92.6272 30.337 92.7932 30.6051C93.115 31.1212 93.6586 31.813 94.1431 32.1746C94.673 32.5712 95.2177 32.9949 95.7863 33.3385C96.7962 33.9481 97.9231 34.2973 98.8954 34.908C99.4686 35.2674 100.037 35.7215 100.597 36.1282C100.873 36.3288 101.06 36.642 101.418 36.7671V36.7096C101.228 36.4708 101.18 36.144 101.007 35.8961L100.244 35.1401C99.4981 34.1543 98.552 33.298 97.5456 32.5825C96.7438 32.0113 94.9471 31.2406 94.6127 30.3145L94.5536 30.257C95.1222 30.1928 95.7886 29.9888 96.314 29.8503C97.1965 29.6159 97.9845 29.6756 98.8966 29.4435L100.128 29.0942V28.861C99.6676 28.3934 99.3401 27.7737 98.8374 27.3501C97.524 26.2414 96.09 25.135 94.6139 24.21C93.7951 23.6973 92.7841 23.365 91.9153 22.9312C91.623 22.7847 91.1102 22.7092 90.918 22.4658C90.462 21.8901 90.214 21.16 89.8626 20.4941C89.1269 19.0891 88.4025 17.5546 87.7509 16.0763C87.3051 15.0679 87.014 14.0742 86.4601 13.1694C83.7957 8.82938 80.9288 6.2098 76.4869 3.63641C75.5419 3.08883 74.4047 2.87251 73.2015 2.5897L71.2649 2.47365C70.8714 2.31028 70.462 1.83256 70.0913 1.60046C68.6198 0.678819 64.8454 -1.32333 63.7559 1.30526C63.0679 2.96828 64.784 4.5896 65.3981 5.43237C65.8291 6.02389 66.3817 6.68639 66.6888 7.35115C66.8912 7.78831 66.9265 8.22659 67.0993 8.68854C67.5258 9.822 67.8976 11.0659 68.4492 12.1182C68.7278 12.6512 69.0348 13.2122 69.3874 13.6877C69.6034 13.9807 69.9742 14.1091 70.0322 14.5598C69.6705 15.0634 69.6501 15.842 69.4454 16.4786C68.5288 19.3438 68.8745 22.9041 70.2084 25.0246C70.6178 25.6747 71.581 27.0707 72.907 26.5355C74.0658 26.0679 73.802 24.6178 74.1386 23.339C74.2136 23.0484 74.1682 22.8365 74.3149 22.6416V22.6991L75.3713 24.7914C76.1526 26.0386 77.5399 27.3422 78.7147 28.2222C79.3242 28.6785 79.8098 29.4672 80.5922 29.7342V29.6756H80.5342C80.3807 29.439 80.1419 29.3421 79.9474 29.1528C79.488 28.7066 78.9774 28.1523 78.5975 27.6419C77.5274 26.2031 76.5836 24.6302 75.7227 22.9909C75.3122 22.209 74.954 21.3459 74.6082 20.5493C74.4752 20.2429 74.4763 19.7787 74.1989 19.6198C73.819 20.2034 73.2595 20.6744 72.9661 21.3639C72.4965 22.4647 72.4362 23.8078 72.2622 25.2004C72.1587 25.2375 72.2053 25.2116 72.1451 25.2589C71.3286 25.064 71.0409 24.2303 70.7372 23.5148C69.9685 21.7053 69.8263 18.7951 70.5018 16.7129C70.6758 16.1755 71.4673 14.4787 71.1477 13.9807C70.9942 13.4849 70.4904 13.192 70.2084 12.8179C69.8604 12.3492 69.5113 11.7318 69.2702 11.1898C68.6414 9.78032 68.348 8.19843 67.6861 6.77202C67.37 6.09149 66.8355 5.40195 66.3954 4.80029C65.9098 4.12991 65.3651 3.63528 64.9875 2.82857C64.8533 2.54013 64.6714 2.07931 64.8704 1.78186C64.8897 1.6951 64.9318 1.61961 64.9955 1.55652C65.0592 1.49342 65.1354 1.45286 65.2229 1.43371C65.563 1.17344 66.5114 1.51934 66.8651 1.66581C67.8055 2.05339 68.5913 2.42183 69.3885 2.94462C69.7717 3.19136 70.1584 3.68261 70.6201 3.81781H71.1477C71.9734 4.00597 72.899 3.8764 73.6701 4.1085C75.0336 4.51862 76.2549 5.15858 77.366 5.85263C80.7469 7.96745 83.5114 10.9803 85.4026 14.5767C85.7073 15.1558 85.8392 15.7079 86.1065 16.3208C86.6478 17.5534 87.329 18.8311 87.8669 20.0412C88.4036 21.249 88.9267 22.4658 89.6852 23.4709C90.0844 23.9982 91.6253 24.2821 92.3258 24.575C92.816 24.7801 93.62 24.9953 94.0851 25.2725C94.9732 25.8031 95.8341 26.4363 96.6677 27.0177C97.0839 27.3084 98.3632 27.9461 98.4269 28.47L98.4258 28.4543Z" fill="#00618A"/>
<path fill-rule="evenodd" clip-rule="evenodd" d="M72.2054 6.30667C71.7744 6.29878 71.4707 6.35286 71.1489 6.42272V6.48131H71.208C71.4127 6.89931 71.7744 7.16747 72.028 7.52801L72.6159 8.74823L72.6739 8.68964C73.0378 8.43613 73.2038 8.03052 73.2015 7.41084C73.056 7.25873 73.0344 7.06945 72.9081 6.88805C72.7398 6.64581 72.41 6.50947 72.2042 6.30554L72.2054 6.30667Z" fill="#00618A"/>
<path fill-rule="evenodd" clip-rule="evenodd" d="M97.0532 45.2038C97.0532 46.6674 98.2199 47.6544 99.5266 47.6544C100.832 47.6544 102 46.6674 102 45.2038C102 43.7391 100.832 42.7521 99.5266 42.7521C98.2199 42.7521 97.0532 43.7391 97.0532 45.2038ZM101.445 45.2038C101.445 46.3147 100.589 47.144 99.5254 47.144C98.4508 47.144 97.6047 46.3147 97.6047 45.2038C97.6047 44.0917 98.4496 43.2625 99.5254 43.2625C100.588 43.2625 101.445 44.0917 101.445 45.2038ZM100.192 46.602H100.746L99.9348 45.3739C100.369 45.3277 100.699 45.1181 100.699 44.6089C100.699 44.0399 100.336 43.8055 99.638 43.8055H98.5361V46.6031H99.0103V45.3931H99.4527L100.191 46.6031L100.192 46.602ZM99.0103 44.9998V44.1965H99.5584C99.8416 44.1965 100.185 44.2495 100.185 44.5762C100.185 44.9683 99.8746 45.001 99.5186 45.001H99.0103V44.9998Z" fill="#E48E00"/>
</svg>
