<svg width="82" height="43" viewBox="0 0 82 43" fill="none" xmlns="http://www.w3.org/2000/svg">
<mask id="mask0_32_36" style="mask-type:luminance" maskUnits="userSpaceOnUse" x="0" y="0" width="82" height="43">
<path d="M0 0H82V42.7846H0V0Z" fill="white"/>
</mask>
<g mask="url(#mask0_32_36)">
<mask id="mask1_32_36" style="mask-type:luminance" maskUnits="userSpaceOnUse" x="0" y="0" width="82" height="43">
<path d="M0 21.3927C0 33.1616 18.3567 42.703 41 42.703C63.6424 42.703 81.9991 33.1616 81.9991 21.3927C81.9991 9.62381 63.6424 0.0823975 41 0.0823975C18.3567 0.0823975 0 9.62381 0 21.3927Z" fill="white"/>
</mask>
<g mask="url(#mask1_32_36)">
<mask id="mask2_32_36" style="mask-type:luminance" maskUnits="userSpaceOnUse" x="0" y="0" width="82" height="43">
<path d="M0 21.3927C0 33.1616 18.3567 42.703 41 42.703C63.6424 42.703 81.9991 33.1616 81.9991 21.3927C81.9991 9.62381 63.6424 0.0823975 41 0.0823975C18.3567 0.0823975 0 9.62381 0 21.3927Z" fill="white"/>
</mask>
<g mask="url(#mask2_32_36)">
<path d="M0 0.0823975V42.703H81.9991V0.0823975H0Z" fill="url(#paint0_radial_32_36)"/>
</g>
</g>
</g>
<path d="M41 41.1202C62.7585 41.1202 80.3978 32.2882 80.3978 21.3928C80.3978 10.4973 62.7585 1.66449 41 1.66449C19.2407 1.66449 1.60135 10.4973 1.60135 21.3928C1.60135 32.2882 19.2407 41.1202 41 41.1202Z" fill="#777BB3"/>
<path d="M22.275 23.8378C24.064 23.8378 25.3996 23.5124 26.2441 22.8696C27.0808 22.2338 27.6578 21.1314 27.9604 19.5941C28.2428 18.1576 28.1358 17.1544 27.6412 16.6133C27.136 16.0599 26.0442 15.7793 24.3946 15.7793H21.5357L19.9501 23.8386H22.275V23.8378ZM12.9239 33.765C12.7906 33.765 12.6652 33.7072 12.5801 33.6054C12.4915 33.4984 12.46 33.3774 12.4871 33.2424L16.6878 11.8864C16.6975 11.8365 16.7159 11.7891 16.7422 11.7453C16.7685 11.7014 16.8018 11.6637 16.8413 11.6312C16.8816 11.5988 16.9255 11.5742 16.9746 11.5567C17.0228 11.5392 17.0728 11.5304 17.1246 11.5304H26.1784C29.0241 11.5304 31.142 12.2925 32.4732 13.8C33.8115 15.3136 34.2246 17.4298 33.701 20.0887C33.4879 21.1718 33.1222 22.1785 32.6127 23.0792C32.1023 23.9807 31.4288 24.8156 30.6097 25.5601C29.6284 26.4669 28.5181 27.1246 27.3114 27.5123C26.1249 27.8937 24.6007 28.0875 22.7819 28.0875H19.1161L18.069 33.4099C18.0594 33.4599 18.041 33.5072 18.0147 33.5511C17.9884 33.5949 17.955 33.6326 17.9156 33.6651C17.8752 33.6975 17.8314 33.7229 17.7823 33.7396C17.734 33.7571 17.6841 33.7659 17.6323 33.7659H12.9221L12.9239 33.765Z" fill="black"/>
<path d="M21.9023 16.2187H24.3955C26.3853 16.2187 27.0764 16.6501 27.3114 16.908C27.7017 17.3342 27.7745 18.2348 27.5245 19.5108C27.243 20.9394 26.7212 21.9523 25.9732 22.5214C25.2084 23.1037 23.9631 23.3984 22.275 23.3984H20.4912L21.9032 16.2187H21.9023ZM26.1775 11.0901H17.1246C17.0211 11.091 16.9211 11.1077 16.8238 11.1419C16.7264 11.177 16.6387 11.2261 16.5589 11.291C16.4791 11.3559 16.4125 11.4322 16.3598 11.5199C16.3072 11.6076 16.2713 11.7014 16.2511 11.8022L12.0504 33.159C12.0381 33.2231 12.0329 33.2871 12.0346 33.352C12.0364 33.4169 12.0452 33.48 12.0618 33.5432C12.0776 33.6063 12.1004 33.6659 12.1302 33.7238C12.16 33.7817 12.196 33.8361 12.2372 33.8861C12.2793 33.936 12.3258 33.9808 12.3775 34.0211C12.4293 34.0606 12.4854 34.0939 12.5441 34.122C12.6038 34.1491 12.6652 34.1702 12.7292 34.1842C12.7932 34.1991 12.8581 34.2061 12.9239 34.2061H17.6323C17.7358 34.2061 17.8358 34.1886 17.9331 34.1544C18.0305 34.1193 18.1182 34.0702 18.198 34.0053C18.2778 33.9404 18.3444 33.8641 18.397 33.7764C18.4497 33.6887 18.4856 33.5949 18.5058 33.4949L19.4827 28.5278H22.7819C24.6481 28.5278 26.2187 28.327 27.45 27.9306C28.7163 27.5245 29.8827 26.8344 30.9131 25.882C31.7664 25.1067 32.4706 24.2359 33.0012 23.2949C33.5326 22.353 33.9167 21.3024 34.1386 20.1738C34.6893 17.3745 34.2421 15.133 32.8082 13.5115C31.3893 11.9057 29.1583 11.0919 26.1792 11.0919M19.4117 24.2789H22.2759C24.1736 24.2789 25.5882 23.9255 26.5169 23.2186C27.4456 22.5118 28.0726 21.3323 28.3989 19.6792C28.7102 18.0927 28.5681 16.972 27.9726 16.3195C27.3781 15.667 26.1845 15.3408 24.3964 15.3408H21.17L19.4117 24.2789ZM26.1792 11.9706C28.9031 11.9706 30.8894 12.6775 32.1382 14.0894C33.3879 15.5022 33.7633 17.4736 33.2651 20.0054C33.0599 21.0481 32.7135 22.0014 32.2251 22.8652C31.7366 23.7299 31.0973 24.52 30.3089 25.2365C29.3688 26.1065 28.3243 26.7256 27.1746 27.0948C26.0258 27.4649 24.5621 27.6491 22.7828 27.6491H18.7496L17.6332 33.3265H12.9248L17.1254 11.9724H26.1792" fill="white"/>
<path d="M44.4965 28.0875C44.3632 28.0875 44.2378 28.0288 44.1536 27.927C44.0685 27.8262 44.0343 27.6929 44.0597 27.564L45.918 18.1146C46.0943 17.2157 46.0513 16.5712 45.7953 16.2984C45.6383 16.1318 45.1682 15.8521 43.7774 15.8521H40.4107L38.0744 27.7315C38.0648 27.7815 38.0464 27.8279 38.0201 27.8718C37.9938 27.9156 37.9604 27.9542 37.921 27.9867C37.8806 28.0191 37.8368 28.0437 37.7885 28.0612C37.7394 28.0787 37.6895 28.0866 37.6377 28.0866H32.967C32.9003 28.0866 32.8372 28.0735 32.7767 28.0454C32.717 28.0174 32.6653 27.9779 32.6232 27.927C32.5811 27.8762 32.5522 27.8192 32.5355 27.756C32.5188 27.692 32.5171 27.628 32.5303 27.564L36.7309 6.20804C36.7406 6.15805 36.759 6.1107 36.7853 6.06685C36.8116 6.023 36.8449 5.98529 36.8844 5.95284C36.9247 5.92039 36.9686 5.89584 37.0168 5.8783C37.0659 5.86076 37.1159 5.85199 37.1677 5.85199H41.8384C41.905 5.85199 41.9682 5.86602 42.0287 5.89408C42.0883 5.92215 42.1401 5.96161 42.1822 6.01247C42.2243 6.06334 42.2532 6.12034 42.2699 6.18348C42.2865 6.2475 42.2883 6.31152 42.2751 6.37554L41.2613 11.5304H44.8832C47.6422 11.5304 49.5127 12.0109 50.6028 12.9993C51.7148 14.0078 52.0603 15.6205 51.6332 17.7937L49.6785 27.7315C49.6688 27.7815 49.6504 27.8288 49.6241 27.8727C49.5978 27.9165 49.5645 27.9542 49.525 27.9867C49.4847 28.0191 49.4408 28.0445 49.3926 28.0612C49.3435 28.0787 49.2935 28.0875 49.2417 28.0875H44.4965Z" fill="black"/>
<path d="M41.8393 5.41266H37.1677C37.0642 5.41266 36.9642 5.4302 36.8669 5.4644C36.7695 5.4986 36.6818 5.54859 36.602 5.61348C36.5222 5.67838 36.4556 5.75468 36.4029 5.84237C36.3503 5.93007 36.3144 6.02391 36.2942 6.12388L32.0935 27.4798C32.0812 27.5438 32.076 27.6078 32.0777 27.6727C32.0795 27.7376 32.0883 27.8008 32.1049 27.8639C32.1207 27.9271 32.1435 27.9876 32.1733 28.0446C32.2031 28.1024 32.2391 28.1568 32.2803 28.2068C32.3224 28.2568 32.3689 28.3015 32.4206 28.3419C32.4724 28.3813 32.5285 28.4146 32.5873 28.4427C32.6469 28.4699 32.7083 28.4909 32.7723 28.505C32.8363 28.5199 32.9012 28.5269 32.967 28.5269H37.6377C37.7412 28.5269 37.842 28.5094 37.9385 28.4752C38.0359 28.4401 38.1244 28.391 38.2042 28.3261C38.284 28.2612 38.3498 28.1849 38.4024 28.0972C38.4559 28.0095 38.4919 27.9157 38.5112 27.8157L40.7781 16.2923H43.7782C45.1665 16.2923 45.4576 16.5852 45.469 16.5975C45.5541 16.687 45.6646 17.1018 45.4813 18.0305L43.6239 27.4798C43.6107 27.5438 43.6055 27.6078 43.6072 27.6727C43.609 27.7376 43.6186 27.8008 43.6344 27.8639C43.6511 27.9271 43.6739 27.9876 43.7037 28.0446C43.7326 28.1024 43.7686 28.1568 43.8107 28.2068C43.8519 28.2568 43.8993 28.3015 43.951 28.3419C44.0027 28.3813 44.058 28.4146 44.1176 28.4427C44.1764 28.4699 44.2386 28.4909 44.3027 28.505C44.3667 28.5199 44.4316 28.5269 44.4974 28.5269H49.2426C49.3452 28.5269 49.4461 28.5094 49.5426 28.4752C49.6399 28.4401 49.7285 28.391 49.8083 28.3261C49.8881 28.2612 49.9538 28.1849 50.0073 28.0972C50.06 28.0095 50.0959 27.9157 50.1161 27.8157L52.07 17.877C52.5286 15.5451 52.1366 13.7947 50.9045 12.6757C49.7293 11.6093 47.7597 11.0901 44.8841 11.0901H41.8016L42.7127 6.45976C42.725 6.39574 42.7303 6.33172 42.7285 6.26683C42.7268 6.20193 42.718 6.13791 42.7022 6.07565C42.6855 6.0125 42.6627 5.95199 42.6329 5.89411C42.6031 5.83623 42.568 5.78274 42.5259 5.73275C42.4838 5.68276 42.4374 5.63804 42.3856 5.5977C42.3339 5.55824 42.2786 5.52403 42.219 5.49685C42.1594 5.46878 42.098 5.44774 42.034 5.43371C41.9699 5.41967 41.905 5.41266 41.8393 5.41266ZM41.8393 6.29138L40.7229 11.9697H44.8841C47.5027 11.9697 49.3084 12.4214 50.3029 13.3229C51.2965 14.2253 51.5947 15.6881 51.1974 17.7095L49.2426 27.6473H44.4974L46.3556 18.1988C46.567 17.1237 46.4889 16.3905 46.1224 15.9994C45.7549 15.6083 44.9735 15.4127 43.7782 15.4127H40.0441L37.6386 27.6473H32.967L37.1677 6.29138H41.8393Z" fill="white"/>
<path d="M59.0243 23.8378C60.8133 23.8378 62.149 23.5124 62.9943 22.8696C63.8301 22.2338 64.408 21.1314 64.7106 19.5941C64.993 18.1576 64.8851 17.1544 64.3914 16.6133C63.8862 16.0599 62.7935 15.7793 61.1448 15.7793H58.285L56.7003 23.8386H59.0243V23.8378ZM49.6732 33.765C49.5399 33.765 49.4145 33.7063 49.3294 33.6054C49.2409 33.4984 49.2093 33.3774 49.2365 33.2415L53.4372 11.8856C53.4468 11.8356 53.4652 11.7891 53.4915 11.7453C53.5178 11.7014 53.5512 11.6628 53.5906 11.6304C53.631 11.5979 53.6748 11.5734 53.7239 11.5558C53.7722 11.5392 53.8221 11.5304 53.8739 11.5304H62.9277C65.7735 11.5304 67.8905 12.2925 69.2226 13.7991C70.5608 15.3128 70.9739 17.4289 70.4503 20.0878C70.2372 21.1718 69.8715 22.1777 69.362 23.0792C68.8516 23.9807 68.1781 24.8147 67.3581 25.5593C66.3768 26.4669 65.2666 27.1246 64.0607 27.5114C62.8742 27.8937 61.35 28.0875 59.5312 28.0875H55.862L54.8157 33.4099C54.8061 33.4599 54.7877 33.5063 54.7614 33.5502C54.7351 33.594 54.7017 33.6326 54.6623 33.6651C54.6219 33.6975 54.5781 33.7221 54.529 33.7396C54.4807 33.7563 54.4308 33.765 54.379 33.765H49.6706H49.6732Z" fill="black"/>
<path d="M58.6525 16.2187H61.1448C63.1347 16.2187 63.8266 16.6501 64.0616 16.908C64.451 17.3342 64.5247 18.2348 64.2739 19.5108C63.9924 20.9394 63.4706 21.9523 62.7234 22.5214C61.9578 23.1037 60.7134 23.3984 59.0252 23.3984H57.2406L58.6525 16.2187ZM62.9277 11.0901H53.8739C53.7704 11.091 53.6704 11.1077 53.5731 11.1419C53.4758 11.177 53.3872 11.2261 53.3083 11.291C53.2285 11.3559 53.1618 11.4322 53.1092 11.5199C53.0566 11.6076 53.0197 11.7014 53.0004 11.8022L48.7998 33.159C48.7866 33.2231 48.7813 33.2871 48.7831 33.352C48.7849 33.4169 48.7945 33.48 48.8103 33.5432C48.827 33.6063 48.8498 33.6659 48.8787 33.7238C48.9085 33.7817 48.9445 33.8361 48.9866 33.8861C49.0278 33.936 49.0751 33.9808 49.1269 34.0211C49.1786 34.0606 49.2339 34.0939 49.2935 34.122C49.3523 34.1491 49.4145 34.1702 49.4785 34.1842C49.5426 34.1991 49.6075 34.2061 49.6723 34.2061H54.3808C54.4843 34.2061 54.5842 34.1886 54.6816 34.1544C54.7789 34.1193 54.8675 34.0702 54.9464 34.0053C55.0262 33.9404 55.0929 33.8641 55.1455 33.7764C55.1981 33.6887 55.235 33.5949 55.2542 33.4949L56.2312 28.5278H59.5303C61.3965 28.5278 62.9672 28.327 64.1984 27.9306C65.4657 27.5245 66.6312 26.8344 67.6625 25.8811C68.5158 25.1067 69.2173 24.2359 69.7496 23.2949C70.282 22.353 70.6652 21.3024 70.8871 20.1738C71.4378 17.3745 70.9906 15.133 69.5567 13.5115C68.1378 11.9057 65.9068 11.0919 62.9277 11.0919M56.1602 24.2789H59.0243C60.9221 24.2789 62.3366 23.9255 63.2653 23.2186C64.1941 22.5118 64.8211 21.3323 65.1473 19.6792C65.4586 18.0927 65.3166 16.972 64.7211 16.3195C64.1257 15.667 62.933 15.3408 61.1448 15.3408H57.9185L56.161 24.2789M62.9277 11.9706C65.6516 11.9706 67.6379 12.6775 68.8867 14.0894C70.1364 15.5022 70.5117 17.4736 70.0136 20.0054C69.8084 21.0481 69.462 22.0014 68.9735 22.8652C68.4851 23.7299 67.8458 24.52 67.0574 25.2365C66.1172 26.1065 65.0728 26.7256 63.9231 27.0948C62.7742 27.4649 61.3106 27.6491 59.5312 27.6491H55.498L54.3817 33.3265H49.6732L53.8739 11.9706H62.9277Z" fill="white"/>
<defs>
<radialGradient id="paint0_radial_32_36" cx="0" cy="0" r="1" gradientUnits="userSpaceOnUse" gradientTransform="translate(24.6163 7.57398) scale(53.8388 53.1966)">
<stop stop-color="#AEB2D5"/>
<stop offset="0.25" stop-color="#AEB2D5"/>
<stop offset="0.296875" stop-color="#AEB2D5"/>
<stop offset="0.300781" stop-color="#ADB1D4"/>
<stop offset="0.304688" stop-color="#ACB0D4"/>
<stop offset="0.308594" stop-color="#ACB0D3"/>
<stop offset="0.3125" stop-color="#ABAFD2"/>
<stop offset="0.316406" stop-color="#AAAED2"/>
<stop offset="0.320312" stop-color="#A9ADD1"/>
<stop offset="0.324219" stop-color="#A8ACD1"/>
<stop offset="0.328125" stop-color="#A7ABD0"/>
<stop offset="0.332031" stop-color="#A6AACF"/>
<stop offset="0.335938" stop-color="#A5A9CF"/>
<stop offset="0.339844" stop-color="#A4A9CE"/>
<stop offset="0.34375" stop-color="#A4A8CD"/>
<stop offset="0.347656" stop-color="#A3A7CD"/>
<stop offset="0.351562" stop-color="#A2A6CC"/>
<stop offset="0.355469" stop-color="#A1A5CB"/>
<stop offset="0.359375" stop-color="#A0A4CB"/>
<stop offset="0.363281" stop-color="#9FA3CA"/>
<stop offset="0.367188" stop-color="#9EA2C9"/>
<stop offset="0.371094" stop-color="#9DA1C9"/>
<stop offset="0.375" stop-color="#9CA1C8"/>
<stop offset="0.378906" stop-color="#9CA0C7"/>
<stop offset="0.382812" stop-color="#9B9FC7"/>
<stop offset="0.386719" stop-color="#9A9EC6"/>
<stop offset="0.390625" stop-color="#999DC5"/>
<stop offset="0.394531" stop-color="#989CC5"/>
<stop offset="0.398438" stop-color="#979BC4"/>
<stop offset="0.402344" stop-color="#969AC3"/>
<stop offset="0.40625" stop-color="#9599C3"/>
<stop offset="0.410156" stop-color="#9499C2"/>
<stop offset="0.414062" stop-color="#9498C1"/>
<stop offset="0.417969" stop-color="#9397C1"/>
<stop offset="0.421875" stop-color="#9296C0"/>
<stop offset="0.425781" stop-color="#9195BF"/>
<stop offset="0.429688" stop-color="#9094BF"/>
<stop offset="0.433594" stop-color="#8F93BE"/>
<stop offset="0.4375" stop-color="#8E92BD"/>
<stop offset="0.441406" stop-color="#8D91BD"/>
<stop offset="0.445312" stop-color="#8D91BC"/>
<stop offset="0.449219" stop-color="#8C90BB"/>
<stop offset="0.453125" stop-color="#8B8FBB"/>
<stop offset="0.457031" stop-color="#8A8EBA"/>
<stop offset="0.460938" stop-color="#898DB9"/>
<stop offset="0.464844" stop-color="#888CB9"/>
<stop offset="0.46875" stop-color="#878BB8"/>
<stop offset="0.472656" stop-color="#868AB7"/>
<stop offset="0.476562" stop-color="#858AB7"/>
<stop offset="0.480469" stop-color="#8589B6"/>
<stop offset="0.484375" stop-color="#8488B5"/>
<stop offset="0.488281" stop-color="#8387B5"/>
<stop offset="0.492188" stop-color="#8286B4"/>
<stop offset="0.496094" stop-color="#8185B3"/>
<stop offset="0.5" stop-color="#8084B3"/>
<stop offset="0.503906" stop-color="#7F83B2"/>
<stop offset="0.507812" stop-color="#7E82B1"/>
<stop offset="0.511719" stop-color="#7D82B1"/>
<stop offset="0.515625" stop-color="#7D81B0"/>
<stop offset="0.519531" stop-color="#7C80B0"/>
<stop offset="0.523438" stop-color="#7B7FAF"/>
<stop offset="0.527344" stop-color="#7A7EAE"/>
<stop offset="0.53125" stop-color="#797DAE"/>
<stop offset="0.535156" stop-color="#787CAD"/>
<stop offset="0.539062" stop-color="#777BAC"/>
<stop offset="0.542969" stop-color="#767AAC"/>
<stop offset="0.546875" stop-color="#767AAB"/>
<stop offset="0.550781" stop-color="#7579AA"/>
<stop offset="0.554688" stop-color="#7478AA"/>
<stop offset="0.558594" stop-color="#7377A9"/>
<stop offset="0.5625" stop-color="#7276A8"/>
<stop offset="0.566406" stop-color="#7175A8"/>
<stop offset="0.570312" stop-color="#7074A7"/>
<stop offset="0.574219" stop-color="#6F73A6"/>
<stop offset="0.578125" stop-color="#6E73A6"/>
<stop offset="0.582031" stop-color="#6E72A5"/>
<stop offset="0.585938" stop-color="#6D71A4"/>
<stop offset="0.589844" stop-color="#6C70A4"/>
<stop offset="0.59375" stop-color="#6B6FA3"/>
<stop offset="0.597656" stop-color="#6A6EA2"/>
<stop offset="0.601562" stop-color="#696DA2"/>
<stop offset="0.605469" stop-color="#686CA1"/>
<stop offset="0.609375" stop-color="#676BA0"/>
<stop offset="0.613281" stop-color="#666BA0"/>
<stop offset="0.617188" stop-color="#666A9F"/>
<stop offset="0.621094" stop-color="#65699E"/>
<stop offset="0.625" stop-color="#64689E"/>
<stop offset="0.628906" stop-color="#63679D"/>
<stop offset="0.632812" stop-color="#62669C"/>
<stop offset="0.636719" stop-color="#61659C"/>
<stop offset="0.640625" stop-color="#60649B"/>
<stop offset="0.644531" stop-color="#5F639A"/>
<stop offset="0.648438" stop-color="#5E639A"/>
<stop offset="0.652344" stop-color="#5E6299"/>
<stop offset="0.65625" stop-color="#5D6198"/>
<stop offset="0.660156" stop-color="#5C6098"/>
<stop offset="0.664062" stop-color="#5B5F97"/>
<stop offset="0.667969" stop-color="#5A5E96"/>
<stop offset="0.671875" stop-color="#595D96"/>
<stop offset="0.675781" stop-color="#585C95"/>
<stop offset="0.679688" stop-color="#575B94"/>
<stop offset="0.683594" stop-color="#575B94"/>
<stop offset="0.6875" stop-color="#565A93"/>
<stop offset="0.691406" stop-color="#555992"/>
<stop offset="0.695312" stop-color="#545892"/>
<stop offset="0.699219" stop-color="#535791"/>
<stop offset="0.703125" stop-color="#525691"/>
<stop offset="0.707031" stop-color="#515590"/>
<stop offset="0.710938" stop-color="#50548F"/>
<stop offset="0.714844" stop-color="#4F548F"/>
<stop offset="0.71875" stop-color="#4F538E"/>
<stop offset="0.722656" stop-color="#4E528D"/>
<stop offset="0.726562" stop-color="#4D518D"/>
<stop offset="0.730469" stop-color="#4C508C"/>
<stop offset="0.734375" stop-color="#4B4F8B"/>
<stop offset="0.738281" stop-color="#4A4E8B"/>
<stop offset="0.742188" stop-color="#494D8A"/>
<stop offset="0.746094" stop-color="#484C89"/>
<stop offset="1" stop-color="#484C89"/>
</radialGradient>
</defs>
</svg>
